<svg version="1.1" viewBox="0.0 0.0 654.0 423.0" fill="none" stroke="none" stroke-linecap="square" stroke-miterlimit="10" width="654" height="423" xmlns:xlink="http://www.w3.org/1999/xlink" xmlns="http://www.w3.org/2000/svg"><path fill="#ffffff" d="M0 0L654.0 0L654.0 423.0L0 423.0L0 0Z" fill-rule="nonzero"/><path stroke="#333333" stroke-width="1.0" stroke-linecap="butt" d="M80.5 349.5L632.5 349.5" fill-rule="nonzero"/><path stroke="#cccccc" stroke-width="1.0" stroke-linecap="butt" d="M80.5 284.5L632.5 284.5" fill-rule="nonzero"/><path stroke="#cccccc" stroke-width="1.0" stroke-linecap="butt" d="M80.5 220.5L632.5 220.5" fill-rule="nonzero"/><path stroke="#cccccc" stroke-width="1.0" stroke-linecap="butt" d="M80.5 155.5L632.5 155.5" fill-rule="nonzero"/><path stroke="#cccccc" stroke-width="1.0" stroke-linecap="butt" d="M80.5 90.5L632.5 90.5" fill-rule="nonzero"/><clipPath id="id_0"><path d="M80.15 90.25L632.85 90.25L632.85 349.85L80.15 349.85L80.15 90.25Z" clip-rule="nonzero"/></clipPath><path stroke="#000000" stroke-width="2.0" stroke-linecap="butt" stroke-opacity="0.0" clip-path="url(#id_0)" d="M208.0 350.0L125.0 350.0L125.0 190.0C125.0 188.89543 125.89543 188.0 127.0 188.0L206.0 188.0C207.10457 188.0 208.0 188.89543 208.0 190.0Z" fill-rule="nonzero"/><path fill="#4285f4" clip-path="url(#id_0)" d="M208.0 350.0L125.0 350.0L125.0 190.0C125.0 188.89543 125.89543 188.0 127.0 188.0L206.0 188.0C207.10457 188.0 208.0 188.89543 208.0 190.0Z" fill-rule="nonzero"/><path stroke="#000000" stroke-width="2.0" stroke-linecap="butt" stroke-opacity="0.0" clip-path="url(#id_0)" d="M335.0 350.0L252.0 350.0L252.0 182.0C252.0 180.89543 252.89543 180.0 254.0 180.0L333.0 180.0C334.10458 180.0 335.0 180.89543 335.0 182.0Z" fill-rule="nonzero"/><path fill="#4285f4" clip-path="url(#id_0)" d="M335.0 350.0L252.0 350.0L252.0 182.0C252.0 180.89543 252.89543 180.0 254.0 180.0L333.0 180.0C334.10458 180.0 335.0 180.89543 335.0 182.0Z" fill-rule="nonzero"/><path stroke="#000000" stroke-width="2.0" stroke-linecap="butt" stroke-opacity="0.0" clip-path="url(#id_0)" d="M462.0 350.0L379.0 350.0L379.0 197.0C379.0 195.89543 379.89542 195.0 381.0 195.0L460.0 195.0C461.10458 195.0 462.0 195.89543 462.0 197.0Z" fill-rule="nonzero"/><path fill="#4285f4" clip-path="url(#id_0)" d="M462.0 350.0L379.0 350.0L379.0 197.0C379.0 195.89543 379.89542 195.0 381.0 195.0L460.0 195.0C461.10458 195.0 462.0 195.89543 462.0 197.0Z" fill-rule="nonzero"/><path stroke="#000000" stroke-width="2.0" stroke-linecap="butt" stroke-opacity="0.0" clip-path="url(#id_0)" d="M589.0 350.0L506.0 350.0L506.0 123.0C506.0 121.89543 506.89542 121.0 508.0 121.0L587.0 121.0C588.10455 121.0 589.0 121.89543 589.0 123.0Z" fill-rule="nonzero"/><path fill="#4285f4" clip-path="url(#id_0)" d="M589.0 350.0L506.0 350.0L506.0 123.0C506.0 121.89543 506.89542 121.0 508.0 121.0L587.0 121.0C588.10455 121.0 589.0 121.89543 589.0 123.0Z" fill-rule="nonzero"/><path fill="#000000" d="M330.48438 398.85L333.78125 390.25626L335.0 390.25626L338.51562 398.85L337.23438 398.85L336.21875 396.24063L332.64062 396.24063L331.6875 398.85L330.48438 398.85ZM332.96875 395.31876L335.875 395.31876L334.98438 392.94376Q334.5625 391.86563 334.375 391.1625Q334.20312 391.99063 333.90625 392.80313L332.96875 395.31876ZM338.26562 398.85L338.26562 390.25626L339.32812 390.25626L339.32812 398.85L338.26562 398.85ZM341.09375 399.36563L342.125 399.52188Q342.1875 399.99063 342.48438 400.20938Q342.875 400.50626 343.54688 400.50626Q344.28125 400.50626 344.67188 400.20938Q345.07812 399.9125 345.21875 399.39688Q345.3125 399.06876 345.29688 398.0375Q344.60938 398.85 343.57812 398.85Q342.29688 398.85 341.59375 397.92813Q340.89062 396.99063 340.89062 395.70938Q340.89062 394.81876 341.20312 394.06876Q341.53125 393.30313 342.14062 392.89688Q342.75 392.49063 343.57812 392.49063Q344.6875 392.49063 345.40625 393.38126L345.40625 392.63126L346.375 392.63126L346.375 398.00626Q346.375 399.45938 346.07812 400.06876Q345.78125 400.67813 345.14062 401.02188Q344.5 401.38126 343.5625 401.38126Q342.45312 401.38126 341.76562 400.88126Q341.07812 400.38126 341.09375 399.36563ZM341.96875 395.63126Q341.96875 396.85 342.45312 397.4125Q342.9375 397.975 343.67188 397.975Q344.40625 397.975 344.89062 397.4125Q345.39062 396.85 345.39062 395.6625Q345.39062 394.52188 344.875 393.94376Q344.375 393.36563 343.65625 393.36563Q342.95312 393.36563 342.45312 393.94376Q341.96875 394.50626 341.96875 395.63126ZM347.90625 395.74063Q347.90625 394.00626 348.85938 393.17813Q349.65625 392.49063 350.8125 392.49063Q352.09375 392.49063 352.90625 393.33438Q353.73438 394.1625 353.73438 395.64688Q353.73438 396.85 353.375 397.5375Q353.01562 398.225 352.3125 398.61563Q351.625 398.99063 350.8125 398.99063Q349.51562 398.99063 348.70312 398.1625Q347.90625 397.31876 347.90625 395.74063ZM348.98438 395.74063Q348.98438 396.92813 349.5 397.52188Q350.03125 398.11563 350.8125 398.11563Q351.60938 398.11563 352.125 397.52188Q352.64062 396.92813 352.64062 395.70938Q352.64062 394.55313 352.10938 393.95938Q351.59375 393.36563 350.8125 393.36563Q350.03125 393.36563 349.5 393.95938Q348.98438 394.5375 348.98438 395.74063ZM355.28125 398.85L355.28125 392.63126L356.23438 392.63126L356.23438 393.56876Q356.59375 392.9125 356.89062 392.70938Q357.20312 392.49063 357.57812 392.49063Q358.10938 392.49063 358.65625 392.81876L358.29688 393.80313Q357.90625 393.56876 357.53125 393.56876Q357.17188 393.56876 356.89062 393.7875Q356.625 393.99063 356.51562 394.36563Q356.32812 394.92813 356.32812 395.58438L356.32812 398.85L355.28125 398.85ZM359.29688 391.475L359.29688 390.25626L360.35938 390.25626L360.35938 391.475L359.29688 391.475ZM359.29688 398.85L359.29688 392.63126L360.35938 392.63126L360.35938 398.85L359.29688 398.85ZM364.59375 397.9125L364.75 398.83438Q364.29688 398.92813 363.95312 398.92813Q363.375 398.92813 363.0625 398.75626Q362.75 398.56876 362.60938 398.27188Q362.48438 397.975 362.48438 397.02188L362.48438 393.44376L361.71875 393.44376L361.71875 392.63126L362.48438 392.63126L362.48438 391.08438L363.53125 390.45938L363.53125 392.63126L364.59375 392.63126L364.59375 393.44376L363.53125 393.44376L363.53125 397.08438Q363.53125 397.5375 363.57812 397.6625Q363.64062 397.7875 363.76562 397.86563Q363.89062 397.94376 364.125 397.94376Q364.3125 397.94376 364.59375 397.9125ZM365.29688 398.85L365.29688 390.25626L366.34375 390.25626L366.34375 393.33438Q367.07812 392.49063 368.20312 392.49063Q368.90625 392.49063 369.40625 392.77188Q369.92188 393.0375 370.14062 393.52188Q370.35938 393.99063 370.35938 394.9125L370.35938 398.85L369.3125 398.85L369.3125 394.9125Q369.3125 394.11563 368.96875 393.75626Q368.625 393.39688 368.0 393.39688Q367.53125 393.39688 367.10938 393.64688Q366.70312 393.88126 366.51562 394.30313Q366.34375 394.70938 366.34375 395.44376L366.34375 398.85L365.29688 398.85ZM372.29688 398.85L372.29688 392.63126L373.23438 392.63126L373.23438 393.50626Q373.53125 393.0375 374.01562 392.77188Q374.5 392.49063 375.125 392.49063Q375.8125 392.49063 376.25 392.77188Q376.70312 393.05313 376.875 393.56876Q377.625 392.49063 378.79688 392.49063Q379.73438 392.49063 380.21875 393.00626Q380.71875 393.50626 380.71875 394.58438L380.71875 398.85L379.67188 398.85L379.67188 394.92813Q379.67188 394.30313 379.5625 394.02188Q379.46875 393.74063 379.20312 393.56876Q378.9375 393.39688 378.5625 393.39688Q377.90625 393.39688 377.46875 393.83438Q377.04688 394.27188 377.04688 395.24063L377.04688 398.85L375.98438 398.85L375.98438 394.80313Q375.98438 394.1 375.71875 393.75626Q375.46875 393.39688 374.89062 393.39688Q374.4375 393.39688 374.0625 393.63126Q373.6875 393.86563 373.51562 394.31876Q373.34375 394.77188 373.34375 395.61563L373.34375 398.85L372.29688 398.85Z" fill-rule="nonzero"/><path fill="#000000" d="M32.150005 273.0656L23.556255 269.76874L23.556255 268.55L32.150005 265.03436L32.150005 266.3156L29.54063 267.33124L29.54063 270.90936L32.150005 271.8625L32.150005 273.0656ZM28.618755 270.58124L28.618755 267.675L26.243755 268.5656Q25.16563 268.9875 24.462505 269.175Q25.29063 269.34686 26.10313 269.64374L28.618755 270.58124ZM32.150005 263.53436L25.931255 265.89374L25.931255 264.78436L29.650005 263.4406Q30.25938 263.2375 30.900005 263.05Q30.41563 262.90936 29.72813 262.65936L25.931255 261.26874L25.931255 260.1906L32.150005 262.55L32.150005 263.53436ZM30.150005 256.0031L30.275005 254.90938Q31.22813 255.15938 31.75938 255.8625Q32.29063 256.5656 32.29063 257.64374Q32.29063 259.0031 31.44688 259.8156Q30.60313 260.6125 29.087505 260.6125Q27.525005 260.6125 26.66563 259.8Q25.79063 258.9875 25.79063 257.70624Q25.79063 256.45624 26.63438 255.675Q27.47813 254.87813 29.025005 254.87813Q29.118755 254.87813 29.306255 254.87813L29.306255 259.51874Q30.337505 259.45624 30.88438 258.9406Q31.41563 258.425 31.41563 257.64374Q31.41563 257.0656 31.118755 256.65936Q30.806255 256.2375 30.150005 256.0031ZM28.44688 259.45624L28.44688 255.9875Q27.650005 256.05 27.25938 256.3781Q26.650005 256.89374 26.650005 257.6906Q26.650005 258.425 27.13438 258.925Q27.618755 259.40936 28.44688 259.45624ZM32.150005 253.26875L25.931255 253.26875L25.931255 252.31563L26.868755 252.31563Q26.212505 251.95625 26.00938 251.65938Q25.79063 251.34688 25.79063 250.97188Q25.79063 250.44063 26.118755 249.89375L27.10313 250.25313Q26.868755 250.64375 26.868755 251.01875Q26.868755 251.37813 27.087505 251.65938Q27.29063 251.925 27.66563 252.03438Q28.22813 252.22188 28.88438 252.22188L32.150005 252.22188L32.150005 253.26875ZM31.38438 245.19063Q31.88438 245.78438 32.087505 246.33125Q32.29063 246.8625 32.29063 247.4875Q32.29063 248.51875 31.79063 249.06563Q31.29063 249.6125 30.50938 249.6125Q30.056255 249.6125 29.681255 249.40938Q29.29063 249.20625 29.07188 248.8625Q28.837505 248.51875 28.72813 248.09688Q28.63438 247.8 28.556255 247.15938Q28.41563 245.89375 28.19688 245.28438Q27.97813 245.28438 27.931255 245.28438Q27.275005 245.28438 27.00938 245.58125Q26.66563 245.9875 26.66563 246.78438Q26.66563 247.51875 26.931255 247.87813Q27.181255 248.2375 27.837505 248.40938L27.69688 249.44063Q27.04063 249.3 26.63438 248.97188Q26.22813 248.64375 26.00938 248.03438Q25.79063 247.425 25.79063 246.62813Q25.79063 245.83125 25.97813 245.33125Q26.16563 244.83125 26.44688 244.59688Q26.72813 244.3625 27.16563 244.26875Q27.431255 244.22188 28.13438 244.22188L29.54063 244.22188Q31.00938 244.22188 31.400005 244.15938Q31.79063 244.08125 32.150005 243.87813L32.150005 244.9875Q31.82188 245.14375 31.38438 245.19063ZM29.025005 245.28438Q29.25938 245.8625 29.431255 247.00313Q29.525005 247.65938 29.650005 247.925Q29.75938 248.19063 29.97813 248.34688Q30.19688 248.4875 30.47813 248.4875Q30.900005 248.4875 31.181255 248.175Q31.462505 247.84688 31.462505 247.2375Q31.462505 246.62813 31.19688 246.15938Q30.931255 245.675 30.462505 245.45625Q30.10313 245.28438 29.41563 245.28438L29.025005 245.28438ZM32.66563 242.45625L32.82188 241.425Q33.29063 241.3625 33.50938 241.06563Q33.806255 240.675 33.806255 240.00313Q33.806255 239.26875 33.50938 238.87813Q33.212505 238.47188 32.69688 238.33125Q32.368755 238.2375 31.337505 238.25313Q32.150005 238.94063 32.150005 239.97188Q32.150005 241.25313 31.22813 241.95625Q30.29063 242.65938 29.00938 242.65938Q28.118755 242.65938 27.368755 242.34688Q26.60313 242.01875 26.19688 241.40938Q25.79063 240.8 25.79063 239.97188Q25.79063 238.8625 26.681255 238.14375L25.931255 238.14375L25.931255 237.175L31.306255 237.175Q32.75938 237.175 33.368755 237.47188Q33.97813 237.76875 34.32188 238.40938Q34.681255 239.05 34.681255 239.9875Q34.681255 241.09688 34.181255 241.78438Q33.681255 242.47188 32.66563 242.45625ZM28.931255 241.58125Q30.150005 241.58125 30.712505 241.09688Q31.275005 240.6125 31.275005 239.87813Q31.275005 239.14375 30.712505 238.65938Q30.150005 238.15938 28.962505 238.15938Q27.82188 238.15938 27.243755 238.675Q26.66563 239.175 26.66563 239.89375Q26.66563 240.59688 27.243755 241.09688Q27.806255 241.58125 28.931255 241.58125ZM30.150005 231.00313L30.275005 229.90938Q31.22813 230.15938 31.75938 230.8625Q32.29063 231.56563 32.29063 232.64375Q32.29063 234.00313 31.44688 234.81563Q30.60313 235.6125 29.087505 235.6125Q27.525005 235.6125 26.66563 234.8Q25.79063 233.9875 25.79063 232.70625Q25.79063 231.45625 26.63438 230.675Q27.47813 229.87813 29.025005 229.87813Q29.118755 229.87813 29.306255 229.87813L29.306255 234.51875Q30.337505 234.45625 30.88438 233.94063Q31.41563 233.425 31.41563 232.64375Q31.41563 232.06563 31.118755 231.65938Q30.806255 231.2375 30.150005 231.00313ZM28.44688 234.45625L28.44688 230.9875Q27.650005 231.05 27.25938 231.37813Q26.650005 231.89375 26.650005 232.69063Q26.650005 233.425 27.13438 233.925Q27.618755 234.40938 28.44688 234.45625ZM32.150005 222.94063L24.57188 222.94063L24.57188 225.76875L23.556255 225.76875L23.556255 218.95625L24.57188 218.95625L24.57188 221.8L32.150005 221.8L32.150005 222.94063ZM24.775005 218.25313L23.556255 218.25313L23.556255 217.19063L24.775005 217.19063L24.775005 218.25313ZM32.150005 218.25313L25.931255 218.25313L25.931255 217.19063L32.150005 217.19063L32.150005 218.25313ZM32.150005 215.25313L25.931255 215.25313L25.931255 214.31563L26.806255 214.31563Q26.337505 214.01875 26.07188 213.53438Q25.79063 213.05 25.79063 212.425Q25.79063 211.7375 26.07188 211.3Q26.35313 210.84688 26.868755 210.675Q25.79063 209.925 25.79063 208.75313Q25.79063 207.81563 26.306255 207.33125Q26.806255 206.83125 27.88438 206.83125L32.150005 206.83125L32.150005 207.87813L28.22813 207.87813Q27.60313 207.87813 27.32188 207.9875Q27.04063 208.08125 26.868755 208.34688Q26.69688 208.6125 26.69688 208.9875Q26.69688 209.64375 27.13438 210.08125Q27.57188 210.50313 28.54063 210.50313L32.150005 210.50313L32.150005 211.56563L28.10313 211.56563Q27.400005 211.56563 27.056255 211.83125Q26.69688 212.08125 26.69688 212.65938Q26.69688 213.1125 26.931255 213.4875Q27.16563 213.8625 27.618755 214.03438Q28.07188 214.20625 28.91563 214.20625L32.150005 214.20625L32.150005 215.25313ZM30.150005 200.00313L30.275005 198.90938Q31.22813 199.15938 31.75938 199.8625Q32.29063 200.56563 32.29063 201.64375Q32.29063 203.00313 31.44688 203.81563Q30.60313 204.6125 29.087505 204.6125Q27.525005 204.6125 26.66563 203.8Q25.79063 202.9875 25.79063 201.70625Q25.79063 200.45625 26.63438 199.675Q27.47813 198.87813 29.025005 198.87813Q29.118755 198.87813 29.306255 198.87813L29.306255 203.51875Q30.337505 203.45625 30.88438 202.94063Q31.41563 202.425 31.41563 201.64375Q31.41563 201.06563 31.118755 200.65938Q30.806255 200.2375 30.150005 200.00313ZM28.44688 203.45625L28.44688 199.9875Q27.650005 200.05 27.25938 200.37813Q26.650005 200.89375 26.650005 201.69063Q26.650005 202.425 27.13438 202.925Q27.618755 203.40938 28.44688 203.45625ZM34.681255 192.2375Q33.57188 193.1125 32.10313 193.72188Q30.618755 194.31563 29.04063 194.31563Q27.650005 194.31563 26.368755 193.87813Q24.88438 193.34688 23.41563 192.2375L23.41563 191.4875Q24.63438 192.19063 25.150005 192.425Q25.962505 192.78438 26.837505 192.9875Q27.931255 193.2375 29.04063 193.2375Q31.868755 193.2375 34.681255 191.4875L34.681255 192.2375ZM30.29063 190.675L30.13438 189.64375Q30.75938 189.55 31.087505 189.15938Q31.41563 188.75313 31.41563 188.01875Q31.41563 187.3 31.13438 186.95625Q30.837505 186.59688 30.431255 186.59688Q30.07188 186.59688 29.868755 186.90938Q29.72813 187.12813 29.50938 187.9875Q29.212505 189.14375 29.00938 189.59688Q28.79063 190.03438 28.41563 190.26875Q28.04063 190.50313 27.57188 190.50313Q27.16563 190.50313 26.806255 190.31563Q26.44688 190.12813 26.212505 189.8Q26.04063 189.55 25.91563 189.12813Q25.79063 188.70625 25.79063 188.20625Q25.79063 187.4875 26.00938 186.94063Q26.212505 186.37813 26.57188 186.1125Q26.931255 185.84688 27.525005 185.75313L27.66563 186.78438Q27.19688 186.84688 26.931255 187.19063Q26.650005 187.51875 26.650005 188.14375Q26.650005 188.8625 26.900005 189.175Q27.13438 189.4875 27.462505 189.4875Q27.66563 189.4875 27.82188 189.3625Q27.993755 189.22188 28.10313 188.95625Q28.16563 188.8 28.368755 188.01875Q28.681255 186.89375 28.868755 186.45625Q29.056255 186.01875 29.41563 185.76875Q29.775005 185.51875 30.32188 185.51875Q30.85313 185.51875 31.32188 185.83125Q31.775005 186.12813 32.04063 186.70625Q32.29063 187.28438 32.29063 188.01875Q32.29063 189.2375 31.79063 189.87813Q31.275005 190.50313 30.29063 190.675ZM34.681255 182.56563L34.681255 183.31563Q31.868755 181.56563 29.04063 181.56563Q27.94688 181.56563 26.85313 181.81563Q25.97813 182.01875 25.16563 182.37813Q24.650005 182.6125 23.41563 183.31563L23.41563 182.56563Q24.88438 181.47188 26.368755 180.94063Q27.650005 180.4875 29.04063 180.4875Q30.618755 180.4875 32.10313 181.09688Q33.57188 181.70625 34.681255 182.56563Z" fill-rule="nonzero"/><path fill="#000000" d="M67.65 349.61563Q67.65 348.08438 67.9625 347.1625Q68.275 346.225 68.88438 345.725Q69.50938 345.225 70.44688 345.225Q71.13438 345.225 71.65 345.50626Q72.18125 345.7875 72.525 346.31876Q72.86875 346.83438 73.05625 347.58438Q73.24375 348.33438 73.24375 349.61563Q73.24375 351.13126 72.93125 352.05313Q72.63438 352.975 72.00938 353.49063Q71.4 353.99063 70.44688 353.99063Q69.2125 353.99063 68.49375 353.1Q67.65 352.0375 67.65 349.61563ZM68.72813 349.61563Q68.72813 351.725 69.22813 352.42813Q69.72813 353.13126 70.44688 353.13126Q71.18125 353.13126 71.66563 352.42813Q72.16563 351.725 72.16563 349.61563Q72.16563 347.49063 71.66563 346.80313Q71.18125 346.1 70.43125 346.1Q69.7125 346.1 69.275 346.70938Q68.72813 347.49063 68.72813 349.61563Z" fill-rule="nonzero"/><path fill="#000000" d="M66.19688 287.9344L66.19688 288.95L60.509377 288.95Q60.509377 288.575 60.634377 288.21564Q60.853127 287.6375 61.321877 287.075Q61.80625 286.5125 62.7125 285.77814Q64.11875 284.6219 64.60313 283.95Q65.10313 283.27814 65.10313 282.6844Q65.10313 282.0594 64.65 281.6375Q64.19688 281.2 63.478127 281.2Q62.7125 281.2 62.259377 281.65314Q61.80625 282.10626 61.790627 282.91876L60.7125 282.8094Q60.821877 281.59064 61.540627 280.96564Q62.275 280.325 63.509377 280.325Q64.74375 280.325 65.4625 281.0125Q66.18125 281.7 66.18125 282.71564Q66.18125 283.23126 65.9625 283.73126Q65.75938 284.21564 65.25938 284.77814Q64.775 285.325 63.65 286.27814Q62.696877 287.075 62.415627 287.3719Q62.15 287.65314 61.978127 287.9344L66.19688 287.9344ZM67.65 284.71564Q67.65 283.1844 67.9625 282.2625Q68.275 281.325 68.88438 280.825Q69.50938 280.325 70.44688 280.325Q71.13438 280.325 71.65 280.60626Q72.18125 280.8875 72.525 281.41876Q72.86875 281.9344 73.05625 282.6844Q73.24375 283.4344 73.24375 284.71564Q73.24375 286.23126 72.93125 287.15314Q72.63438 288.075 72.00938 288.59064Q71.4 289.09064 70.44688 289.09064Q69.2125 289.09064 68.49375 288.2Q67.65 287.1375 67.65 284.71564ZM68.72813 284.71564Q68.72813 286.825 69.22813 287.52814Q69.72813 288.23126 70.44688 288.23126Q71.18125 288.23126 71.66563 287.52814Q72.16563 286.825 72.16563 284.71564Q72.16563 282.59064 71.66563 281.90314Q71.18125 281.2 70.43125 281.2Q69.7125 281.2 69.275 281.8094Q68.72813 282.59064 68.72813 284.71564Z" fill-rule="nonzero"/><path fill="#000000" d="M64.025 224.05L64.025 221.9875L60.30625 221.9875L60.30625 221.01875L64.22813 215.45625L65.0875 215.45625L65.0875 221.01875L66.24375 221.01875L66.24375 221.9875L65.0875 221.9875L65.0875 224.05L64.025 224.05ZM64.025 221.01875L64.025 217.15938L61.3375 221.01875L64.025 221.01875ZM67.65 219.81563Q67.65 218.28438 67.9625 217.3625Q68.275 216.425 68.88438 215.925Q69.50938 215.425 70.44688 215.425Q71.13438 215.425 71.65 215.70625Q72.18125 215.9875 72.525 216.51875Q72.86875 217.03438 73.05625 217.78438Q73.24375 218.53438 73.24375 219.81563Q73.24375 221.33125 72.93125 222.25313Q72.63438 223.175 72.00938 223.69063Q71.4 224.19063 70.44688 224.19063Q69.2125 224.19063 68.49375 223.3Q67.65 222.2375 67.65 219.81563ZM68.72813 219.81563Q68.72813 221.925 69.22813 222.62813Q69.72813 223.33125 70.44688 223.33125Q71.18125 223.33125 71.66563 222.62813Q72.16563 221.925 72.16563 219.81563Q72.16563 217.69063 71.66563 217.00313Q71.18125 216.3 70.43125 216.3Q69.7125 216.3 69.275 216.90938Q68.72813 217.69063 68.72813 219.81563Z" fill-rule="nonzero"/><path fill="#000000" d="M66.11875 152.66562L65.07188 152.74374Q64.93125 152.11874 64.68125 151.8375Q64.24375 151.38437 63.61875 151.38437Q63.11875 151.38437 62.728127 151.66562Q62.24375 152.04062 61.946877 152.74374Q61.665627 153.43124 61.65 154.7125Q62.025 154.13437 62.571877 153.85312Q63.134377 153.57187 63.74375 153.57187Q64.79063 153.57187 65.525 154.35312Q66.275 155.13437 66.275 156.35312Q66.275 157.16562 65.91563 157.86874Q65.57188 158.55624 64.9625 158.93124Q64.35313 159.29062 63.5875 159.29062Q62.259377 159.29062 61.43125 158.32187Q60.603127 157.35312 60.603127 155.13437Q60.603127 152.63437 61.525 151.50937Q62.321877 150.525 63.68125 150.525Q64.69688 150.525 65.3375 151.10312Q65.99375 151.66562 66.11875 152.66562ZM61.821877 156.36874Q61.821877 156.91562 62.040627 157.41562Q62.275 157.9 62.68125 158.16562Q63.103127 158.43124 63.571877 158.43124Q64.22813 158.43124 64.7125 157.9Q65.19688 157.35312 65.19688 156.43124Q65.19688 155.54062 64.7125 155.025Q64.24375 154.50937 63.525 154.50937Q62.80625 154.50937 62.30625 155.025Q61.821877 155.54062 61.821877 156.36874ZM67.65 154.91562Q67.65 153.38437 67.9625 152.4625Q68.275 151.525 68.88438 151.025Q69.50938 150.525 70.44688 150.525Q71.13438 150.525 71.65 150.80624Q72.18125 151.0875 72.525 151.61874Q72.86875 152.13437 73.05625 152.88437Q73.24375 153.63437 73.24375 154.91562Q73.24375 156.43124 72.93125 157.35312Q72.63438 158.275 72.00938 158.79062Q71.4 159.29062 70.44688 159.29062Q69.2125 159.29062 68.49375 158.4Q67.65 157.3375 67.65 154.91562ZM68.72813 154.91562Q68.72813 157.025 69.22813 157.72812Q69.72813 158.43124 70.44688 158.43124Q71.18125 158.43124 71.66563 157.72812Q72.16563 157.025 72.16563 154.91562Q72.16563 152.79062 71.66563 152.10312Q71.18125 151.4 70.43125 151.4Q69.7125 151.4 69.275 152.00937Q68.72813 152.79062 68.72813 154.91562Z" fill-rule="nonzero"/><path fill="#000000" d="M62.275 89.59375Q61.61875 89.34375 61.290627 88.90625Q60.978127 88.453125 60.978127 87.84375Q60.978127 86.90625 61.65 86.265625Q62.3375 85.625 63.446877 85.625Q64.57188 85.625 65.25938 86.28125Q65.94688 86.9375 65.94688 87.875Q65.94688 88.46875 65.63438 88.90625Q65.32188 89.34375 64.68125 89.59375Q65.47813 89.84375 65.88438 90.421875Q66.29063 91.0 66.29063 91.796875Q66.29063 92.890625 65.50938 93.640625Q64.74375 94.390625 63.4625 94.390625Q62.196877 94.390625 61.415627 93.640625Q60.634377 92.890625 60.634377 91.765625Q60.634377 90.921875 61.05625 90.359375Q61.49375 89.796875 62.275 89.59375ZM62.05625 87.796875Q62.05625 88.40625 62.446877 88.796875Q62.853127 89.1875 63.478127 89.1875Q64.0875 89.1875 64.47813 88.8125Q64.86875 88.421875 64.86875 87.859375Q64.86875 87.28125 64.4625 86.890625Q64.05625 86.484375 63.4625 86.484375Q62.853127 86.484375 62.446877 86.875Q62.05625 87.265625 62.05625 87.796875ZM61.728127 91.765625Q61.728127 92.21875 61.93125 92.640625Q62.15 93.0625 62.571877 93.296875Q62.99375 93.53125 63.478127 93.53125Q64.22813 93.53125 64.7125 93.046875Q65.2125 92.5625 65.2125 91.8125Q65.2125 91.046875 64.7125 90.546875Q64.2125 90.046875 63.446877 90.046875Q62.696877 90.046875 62.2125 90.546875Q61.728127 91.03125 61.728127 91.765625ZM67.65 90.015625Q67.65 88.484375 67.9625 87.5625Q68.275 86.625 68.88438 86.125Q69.50938 85.625 70.44688 85.625Q71.13438 85.625 71.65 85.90625Q72.18125 86.1875 72.525 86.71875Q72.86875 87.234375 73.05625 87.984375Q73.24375 88.734375 73.24375 90.015625Q73.24375 91.53125 72.93125 92.453125Q72.63438 93.375 72.00938 93.890625Q71.4 94.390625 70.44688 94.390625Q69.2125 94.390625 68.49375 93.5Q67.65 92.4375 67.65 90.015625ZM68.72813 90.015625Q68.72813 92.125 69.22813 92.828125Q69.72813 93.53125 70.44688 93.53125Q71.18125 93.53125 71.66563 92.828125Q72.16563 92.125 72.16563 90.015625Q72.16563 87.890625 71.66563 87.203125Q71.18125 86.5 70.43125 86.5Q69.7125 86.5 69.275 87.109375Q68.72813 87.890625 68.72813 90.015625Z" fill-rule="nonzero"/><path fill="#000000" d="M130.96066 364.08438L132.02316 363.99063Q132.10129 364.64688 132.38254 365.05313Q132.66379 365.45938 133.24191 365.725Q133.83566 365.975 134.57004 365.975Q135.21066 365.975 135.71066 365.7875Q136.21066 365.58438 136.44504 365.25626Q136.69504 364.9125 136.69504 364.52188Q136.69504 364.11563 136.46066 363.81876Q136.22629 363.50626 135.69504 363.30313Q135.33566 363.1625 134.14816 362.88126Q132.97629 362.6 132.50754 362.35Q131.88254 362.02188 131.58566 361.55313Q131.28879 361.06876 131.28879 360.475Q131.28879 359.83438 131.64816 359.27188Q132.02316 358.69376 132.72629 358.4125Q133.44504 358.11563 134.30441 358.11563Q135.25754 358.11563 135.99191 358.42813Q136.72629 358.725 137.11691 359.33438Q137.50754 359.92813 137.53879 360.67813L136.44504 360.75626Q136.35129 359.94376 135.83566 359.5375Q135.33566 359.11563 134.35129 359.11563Q133.32004 359.11563 132.85129 359.49063Q132.38254 359.86563 132.38254 360.39688Q132.38254 360.86563 132.71066 361.1625Q133.03879 361.45938 134.41379 361.77188Q135.80441 362.08438 136.32004 362.31876Q137.07004 362.67813 137.42941 363.20938Q137.78879 363.725 137.78879 364.42813Q137.78879 365.11563 137.39816 365.725Q137.00754 366.31876 136.27316 366.6625Q135.53879 366.99063 134.61691 366.99063Q133.44504 366.99063 132.64816 366.6625Q131.86691 366.31876 131.41379 365.63126Q130.97629 364.94376 130.96066 364.08438ZM139.21066 369.24063L139.21066 360.63126L140.16379 360.63126L140.16379 361.42813Q140.50754 360.95938 140.92941 360.725Q141.36691 360.49063 141.97629 360.49063Q142.77316 360.49063 143.38254 360.89688Q143.99191 361.30313 144.28879 362.05313Q144.60129 362.80313 144.60129 363.69376Q144.60129 364.64688 144.25754 365.4125Q143.92941 366.17813 143.27316 366.58438Q142.61691 366.99063 141.89816 366.99063Q141.36691 366.99063 140.94504 366.77188Q140.52316 366.5375 140.25754 366.20938L140.25754 369.24063L139.21066 369.24063ZM140.16379 363.77188Q140.16379 364.975 140.64816 365.55313Q141.13254 366.11563 141.82004 366.11563Q142.52316 366.11563 143.02316 365.52188Q143.52316 364.92813 143.52316 363.67813Q143.52316 362.49063 143.03879 361.9125Q142.55441 361.31876 141.86691 361.31876Q141.19504 361.31876 140.67941 361.94376Q140.16379 362.56876 140.16379 363.77188ZM150.46066 364.85L151.55441 364.975Q151.30441 365.92813 150.60129 366.45938Q149.89816 366.99063 148.82004 366.99063Q147.46066 366.99063 146.64816 366.14688Q145.85129 365.30313 145.85129 363.7875Q145.85129 362.225 146.66379 361.36563Q147.47629 360.49063 148.75754 360.49063Q150.00754 360.49063 150.78879 361.33438Q151.58566 362.17813 151.58566 363.725Q151.58566 363.81876 151.58566 364.00626L146.94504 364.00626Q147.00754 365.0375 147.52316 365.58438Q148.03879 366.11563 148.82004 366.11563Q149.39816 366.11563 149.80441 365.81876Q150.22629 365.50626 150.46066 364.85ZM147.00754 363.14688L150.47629 363.14688Q150.41379 362.35 150.08566 361.95938Q149.57004 361.35 148.77316 361.35Q148.03879 361.35 147.53879 361.83438Q147.05441 362.31876 147.00754 363.14688ZM157.27316 364.56876L158.30441 364.70938Q158.13254 365.77188 157.42941 366.38126Q156.72629 366.99063 155.71066 366.99063Q154.42941 366.99063 153.64816 366.1625Q152.88254 365.31876 152.88254 363.75626Q152.88254 362.75626 153.21066 362.00626Q153.55441 361.24063 154.22629 360.86563Q154.91379 360.49063 155.72629 360.49063Q156.72629 360.49063 157.36691 361.00626Q158.02316 361.50626 158.21066 362.45938L157.17941 362.61563Q157.03879 361.99063 156.66379 361.67813Q156.28879 361.35 155.75754 361.35Q154.96066 361.35 154.46066 361.92813Q153.96066 362.49063 153.96066 363.725Q153.96066 364.99063 154.44504 365.55313Q154.92941 366.11563 155.69504 366.11563Q156.32004 366.11563 156.72629 365.74063Q157.14816 365.36563 157.27316 364.56876ZM161.50754 365.9125L161.66379 366.83438Q161.21066 366.92813 160.86691 366.92813Q160.28879 366.92813 159.97629 366.75626Q159.66379 366.56876 159.52316 366.27188Q159.39816 365.975 159.39816 365.02188L159.39816 361.44376L158.63254 361.44376L158.63254 360.63126L159.39816 360.63126L159.39816 359.08438L160.44504 358.45938L160.44504 360.63126L161.50754 360.63126L161.50754 361.44376L160.44504 361.44376L160.44504 365.08438Q160.44504 365.5375 160.49191 365.6625Q160.55441 365.7875 160.67941 365.86563Q160.80441 365.94376 161.03879 365.94376Q161.22629 365.94376 161.50754 365.9125ZM162.19504 366.85L162.19504 360.63126L163.14816 360.63126L163.14816 361.56876Q163.50754 360.9125 163.80441 360.70938Q164.11691 360.49063 164.49191 360.49063Q165.02316 360.49063 165.57004 360.81876L165.21066 361.80313Q164.82004 361.56876 164.44504 361.56876Q164.08566 361.56876 163.80441 361.7875Q163.53879 361.99063 163.42941 362.36563Q163.24191 362.92813 163.24191 363.58438L163.24191 366.85L162.19504 366.85ZM165.82004 363.74063Q165.82004 362.00626 166.77316 361.17813Q167.57004 360.49063 168.72629 360.49063Q170.00754 360.49063 170.82004 361.33438Q171.64816 362.1625 171.64816 363.64688Q171.64816 364.85 171.28879 365.5375Q170.92941 366.225 170.22629 366.61563Q169.53879 366.99063 168.72629 366.99063Q167.42941 366.99063 166.61691 366.1625Q165.82004 365.31876 165.82004 363.74063ZM166.89816 363.74063Q166.89816 364.92813 167.41379 365.52188Q167.94504 366.11563 168.72629 366.11563Q169.52316 366.11563 170.03879 365.52188Q170.55441 364.92813 170.55441 363.70938Q170.55441 362.55313 170.02316 361.95938Q169.50754 361.36563 168.72629 361.36563Q167.94504 361.36563 167.41379 361.95938Q166.89816 362.5375 166.89816 363.74063ZM173.00754 367.36563L174.03879 367.52188Q174.10129 367.99063 174.39816 368.20938Q174.78879 368.50626 175.46066 368.50626Q176.19504 368.50626 176.58566 368.20938Q176.99191 367.9125 177.13254 367.39688Q177.22629 367.06876 177.21066 366.0375Q176.52316 366.85 175.49191 366.85Q174.21066 366.85 173.50754 365.92813Q172.80441 364.99063 172.80441 363.70938Q172.80441 362.81876 173.11691 362.06876Q173.44504 361.30313 174.05441 360.89688Q174.66379 360.49063 175.49191 360.49063Q176.60129 360.49063 177.32004 361.38126L177.32004 360.63126L178.28879 360.63126L178.28879 366.00626Q178.28879 367.45938 177.99191 368.06876Q177.69504 368.67813 177.05441 369.02188Q176.41379 369.38126 175.47629 369.38126Q174.36691 369.38126 173.67941 368.88126Q172.99191 368.38126 173.00754 367.36563ZM173.88254 363.63126Q173.88254 364.85 174.36691 365.4125Q174.85129 365.975 175.58566 365.975Q176.32004 365.975 176.80441 365.4125Q177.30441 364.85 177.30441 363.6625Q177.30441 362.52188 176.78879 361.94376Q176.28879 361.36563 175.57004 361.36563Q174.86691 361.36563 174.36691 361.94376Q173.88254 362.50626 173.88254 363.63126ZM180.19504 366.85L180.19504 360.63126L181.14816 360.63126L181.14816 361.56876Q181.50754 360.9125 181.80441 360.70938Q182.11691 360.49063 182.49191 360.49063Q183.02316 360.49063 183.57004 360.81876L183.21066 361.80313Q182.82004 361.56876 182.44504 361.56876Q182.08566 361.56876 181.80441 361.7875Q181.53879 361.99063 181.42941 362.36563Q181.24191 362.92813 181.24191 363.58438L181.24191 366.85L180.19504 366.85ZM188.27316 366.08438Q187.67941 366.58438 187.13254 366.7875Q186.60129 366.99063 185.97629 366.99063Q184.94504 366.99063 184.39816 366.49063Q183.85129 365.99063 183.85129 365.20938Q183.85129 364.75626 184.05441 364.38126Q184.25754 363.99063 184.60129 363.77188Q184.94504 363.5375 185.36691 363.42813Q185.66379 363.33438 186.30441 363.25626Q187.57004 363.11563 188.17941 362.89688Q188.17941 362.67813 188.17941 362.63126Q188.17941 361.975 187.88254 361.70938Q187.47629 361.36563 186.67941 361.36563Q185.94504 361.36563 185.58566 361.63126Q185.22629 361.88126 185.05441 362.5375L184.02316 362.39688Q184.16379 361.74063 184.49191 361.33438Q184.82004 360.92813 185.42941 360.70938Q186.03879 360.49063 186.83566 360.49063Q187.63254 360.49063 188.13254 360.67813Q188.63254 360.86563 188.86691 361.14688Q189.10129 361.42813 189.19504 361.86563Q189.24191 362.13126 189.24191 362.83438L189.24191 364.24063Q189.24191 365.70938 189.30441 366.1Q189.38254 366.49063 189.58566 366.85L188.47629 366.85Q188.32004 366.52188 188.27316 366.08438ZM188.17941 363.725Q187.60129 363.95938 186.46066 364.13126Q185.80441 364.225 185.53879 364.35Q185.27316 364.45938 185.11691 364.67813Q184.97629 364.89688 184.97629 365.17813Q184.97629 365.6 185.28879 365.88126Q185.61691 366.1625 186.22629 366.1625Q186.83566 366.1625 187.30441 365.89688Q187.78879 365.63126 188.00754 365.1625Q188.17941 364.80313 188.17941 364.11563L188.17941 363.725ZM191.21066 366.85L191.21066 360.63126L192.14816 360.63126L192.14816 361.50626Q192.44504 361.0375 192.92941 360.77188Q193.41379 360.49063 194.03879 360.49063Q194.72629 360.49063 195.16379 360.77188Q195.61691 361.05313 195.78879 361.56876Q196.53879 360.49063 197.71066 360.49063Q198.64816 360.49063 199.13254 361.00626Q199.63254 361.50626 199.63254 362.58438L199.63254 366.85L198.58566 366.85L198.58566 362.92813Q198.58566 362.30313 198.47629 362.02188Q198.38254 361.74063 198.11691 361.56876Q197.85129 361.39688 197.47629 361.39688Q196.82004 361.39688 196.38254 361.83438Q195.96066 362.27188 195.96066 363.24063L195.96066 366.85L194.89816 366.85L194.89816 362.80313Q194.89816 362.1 194.63254 361.75626Q194.38254 361.39688 193.80441 361.39688Q193.35129 361.39688 192.97629 361.63126Q192.60129 361.86563 192.42941 362.31876Q192.25754 362.77188 192.25754 363.61563L192.25754 366.85L191.21066 366.85Z" fill-rule="nonzero"/><path fill="#000000" d="M247.3619 366.85L247.3619 358.25626L249.08064 358.25626L251.1119 364.33438Q251.39314 365.19376 251.51814 365.61563Q251.65877 365.14688 251.97127 364.24063L254.03377 358.25626L255.56502 358.25626L255.56502 366.85L254.47127 366.85L254.47127 359.6625L251.97127 366.85L250.94002 366.85L248.45564 359.5375L248.45564 366.85L247.3619 366.85ZM260.51813 364.85L261.61188 364.975Q261.36188 365.92813 260.65875 366.45938Q259.95563 366.99063 258.8775 366.99063Q257.51813 366.99063 256.70563 366.14688Q255.90877 365.30313 255.90877 363.7875Q255.90877 362.225 256.72125 361.36563Q257.53375 360.49063 258.815 360.49063Q260.065 360.49063 260.84625 361.33438Q261.64313 362.17813 261.64313 363.725Q261.64313 363.81876 261.64313 364.00626L257.0025 364.00626Q257.065 365.0375 257.58063 365.58438Q258.09625 366.11563 258.8775 366.11563Q259.45563 366.11563 259.86188 365.81876Q260.28375 365.50626 260.51813 364.85ZM257.065 363.14688L260.53375 363.14688Q260.47125 362.35 260.14313 361.95938Q259.6275 361.35 258.83063 361.35Q258.09625 361.35 257.59625 361.83438Q257.11188 362.31876 257.065 363.14688ZM263.23688 366.85L263.23688 358.25626L264.29938 358.25626L264.29938 366.85L263.23688 366.85ZM269.01813 364.08438L270.08063 363.99063Q270.15875 364.64688 270.44 365.05313Q270.72125 365.45938 271.29938 365.725Q271.89313 365.975 272.6275 365.975Q273.26813 365.975 273.76813 365.7875Q274.26813 365.58438 274.5025 365.25626Q274.7525 364.9125 274.7525 364.52188Q274.7525 364.11563 274.51813 363.81876Q274.28375 363.50626 273.7525 363.30313Q273.39313 363.1625 272.20563 362.88126Q271.03375 362.6 270.565 362.35Q269.94 362.02188 269.64313 361.55313Q269.34625 361.06876 269.34625 360.475Q269.34625 359.83438 269.70563 359.27188Q270.08063 358.69376 270.78375 358.4125Q271.5025 358.11563 272.36188 358.11563Q273.315 358.11563 274.04938 358.42813Q274.78375 358.725 275.17438 359.33438Q275.565 359.92813 275.59625 360.67813L274.5025 360.75626Q274.40875 359.94376 273.89313 359.5375Q273.39313 359.11563 272.40875 359.11563Q271.3775 359.11563 270.90875 359.49063Q270.44 359.86563 270.44 360.39688Q270.44 360.86563 270.76813 361.1625Q271.09625 361.45938 272.47125 361.77188Q273.86188 362.08438 274.3775 362.31876Q275.1275 362.67813 275.48688 363.20938Q275.84625 363.725 275.84625 364.42813Q275.84625 365.11563 275.45563 365.725Q275.065 366.31876 274.33063 366.6625Q273.59625 366.99063 272.67438 366.99063Q271.5025 366.99063 270.70563 366.6625Q269.92438 366.31876 269.47125 365.63126Q269.03375 364.94376 269.01813 364.08438ZM277.26813 369.24063L277.26813 360.63126L278.22125 360.63126L278.22125 361.42813Q278.565 360.95938 278.98688 360.725Q279.42438 360.49063 280.03375 360.49063Q280.83063 360.49063 281.44 360.89688Q282.04938 361.30313 282.34625 362.05313Q282.65875 362.80313 282.65875 363.69376Q282.65875 364.64688 282.315 365.4125Q281.98688 366.17813 281.33063 366.58438Q280.67438 366.99063 279.95563 366.99063Q279.42438 366.99063 279.0025 366.77188Q278.58063 366.5375 278.315 366.20938L278.315 369.24063L277.26813 369.24063ZM278.22125 363.77188Q278.22125 364.975 278.70563 365.55313Q279.19 366.11563 279.8775 366.11563Q280.58063 366.11563 281.08063 365.52188Q281.58063 364.92813 281.58063 363.67813Q281.58063 362.49063 281.09625 361.9125Q280.61188 361.31876 279.92438 361.31876Q279.2525 361.31876 278.73688 361.94376Q278.22125 362.56876 278.22125 363.77188ZM288.51813 364.85L289.61188 364.975Q289.36188 365.92813 288.65875 366.45938Q287.95563 366.99063 286.8775 366.99063Q285.51813 366.99063 284.70563 366.14688Q283.90875 365.30313 283.90875 363.7875Q283.90875 362.225 284.72125 361.36563Q285.53375 360.49063 286.815 360.49063Q288.065 360.49063 288.84625 361.33438Q289.64313 362.17813 289.64313 363.725Q289.64313 363.81876 289.64313 364.00626L285.0025 364.00626Q285.065 365.0375 285.58063 365.58438Q286.09625 366.11563 286.8775 366.11563Q287.45563 366.11563 287.86188 365.81876Q288.28375 365.50626 288.51813 364.85ZM285.065 363.14688L288.53375 363.14688Q288.47125 362.35 288.14313 361.95938Q287.6275 361.35 286.83063 361.35Q286.09625 361.35 285.59625 361.83438Q285.11188 362.31876 285.065 363.14688ZM295.33063 364.56876L296.36188 364.70938Q296.19 365.77188 295.48688 366.38126Q294.78375 366.99063 293.76813 366.99063Q292.48688 366.99063 291.70563 366.1625Q290.94 365.31876 290.94 363.75626Q290.94 362.75626 291.26813 362.00626Q291.61188 361.24063 292.28375 360.86563Q292.97125 360.49063 293.78375 360.49063Q294.78375 360.49063 295.42438 361.00626Q296.08063 361.50626 296.26813 362.45938L295.23688 362.61563Q295.09625 361.99063 294.72125 361.67813Q294.34625 361.35 293.815 361.35Q293.01813 361.35 292.51813 361.92813Q292.01813 362.49063 292.01813 363.725Q292.01813 364.99063 292.5025 365.55313Q292.98688 366.11563 293.7525 366.11563Q294.3775 366.11563 294.78375 365.74063Q295.20563 365.36563 295.33063 364.56876ZM299.565 365.9125L299.72125 366.83438Q299.26813 366.92813 298.92438 366.92813Q298.34625 366.92813 298.03375 366.75626Q297.72125 366.56876 297.58063 366.27188Q297.45563 365.975 297.45563 365.02188L297.45563 361.44376L296.69 361.44376L296.69 360.63126L297.45563 360.63126L297.45563 359.08438L298.5025 358.45938L298.5025 360.63126L299.565 360.63126L299.565 361.44376L298.5025 361.44376L298.5025 365.08438Q298.5025 365.5375 298.54938 365.6625Q298.61188 365.7875 298.73688 365.86563Q298.86188 365.94376 299.09625 365.94376Q299.28375 365.94376 299.565 365.9125ZM300.2525 366.85L300.2525 360.63126L301.20563 360.63126L301.20563 361.56876Q301.565 360.9125 301.86188 360.70938Q302.17438 360.49063 302.54938 360.49063Q303.08063 360.49063 303.6275 360.81876L303.26813 361.80313Q302.8775 361.56876 302.5025 361.56876Q302.14313 361.56876 301.86188 361.7875Q301.59625 361.99063 301.48688 362.36563Q301.29938 362.92813 301.29938 363.58438L301.29938 366.85L300.2525 366.85ZM303.8775 363.74063Q303.8775 362.00626 304.83063 361.17813Q305.6275 360.49063 306.78375 360.49063Q308.065 360.49063 308.8775 361.33438Q309.70563 362.1625 309.70563 363.64688Q309.70563 364.85 309.34625 365.5375Q308.98688 366.225 308.28375 366.61563Q307.59625 366.99063 306.78375 366.99063Q305.48688 366.99063 304.67438 366.1625Q303.8775 365.31876 303.8775 363.74063ZM304.95563 363.74063Q304.95563 364.92813 305.47125 365.52188Q306.0025 366.11563 306.78375 366.11563Q307.58063 366.11563 308.09625 365.52188Q308.61188 364.92813 308.61188 363.70938Q308.61188 362.55313 308.08063 361.95938Q307.565 361.36563 306.78375 361.36563Q306.0025 361.36563 305.47125 361.95938Q304.95563 362.5375 304.95563 363.74063ZM311.065 367.36563L312.09625 367.52188Q312.15875 367.99063 312.45563 368.20938Q312.84625 368.50626 313.51813 368.50626Q314.2525 368.50626 314.64313 368.20938Q315.04938 367.9125 315.19 367.39688Q315.28375 367.06876 315.26813 366.0375Q314.58063 366.85 313.54938 366.85Q312.26813 366.85 311.565 365.92813Q310.86188 364.99063 310.86188 363.70938Q310.86188 362.81876 311.17438 362.06876Q311.5025 361.30313 312.11188 360.89688Q312.72125 360.49063 313.54938 360.49063Q314.65875 360.49063 315.3775 361.38126L315.3775 360.63126L316.34625 360.63126L316.34625 366.00626Q316.34625 367.45938 316.04938 368.06876Q315.7525 368.67813 315.11188 369.02188Q314.47125 369.38126 313.53375 369.38126Q312.42438 369.38126 311.73688 368.88126Q311.04938 368.38126 311.065 367.36563ZM311.94 363.63126Q311.94 364.85 312.42438 365.4125Q312.90875 365.975 313.64313 365.975Q314.3775 365.975 314.86188 365.4125Q315.36188 364.85 315.36188 363.6625Q315.36188 362.52188 314.84625 361.94376Q314.34625 361.36563 313.6275 361.36563Q312.92438 361.36563 312.42438 361.94376Q311.94 362.50626 311.94 363.63126ZM318.2525 366.85L318.2525 360.63126L319.20563 360.63126L319.20563 361.56876Q319.565 360.9125 319.86188 360.70938Q320.17438 360.49063 320.54938 360.49063Q321.08063 360.49063 321.6275 360.81876L321.26813 361.80313Q320.8775 361.56876 320.5025 361.56876Q320.14313 361.56876 319.86188 361.7875Q319.59625 361.99063 319.48688 362.36563Q319.29938 362.92813 319.29938 363.58438L319.29938 366.85L318.2525 366.85ZM326.33063 366.08438Q325.73688 366.58438 325.19 366.7875Q324.65875 366.99063 324.03375 366.99063Q323.0025 366.99063 322.45563 366.49063Q321.90875 365.99063 321.90875 365.20938Q321.90875 364.75626 322.11188 364.38126Q322.315 363.99063 322.65875 363.77188Q323.0025 363.5375 323.42438 363.42813Q323.72125 363.33438 324.36188 363.25626Q325.6275 363.11563 326.23688 362.89688Q326.23688 362.67813 326.23688 362.63126Q326.23688 361.975 325.94 361.70938Q325.53375 361.36563 324.73688 361.36563Q324.0025 361.36563 323.64313 361.63126Q323.28375 361.88126 323.11188 362.5375L322.08063 362.39688Q322.22125 361.74063 322.54938 361.33438Q322.8775 360.92813 323.48688 360.70938Q324.09625 360.49063 324.89313 360.49063Q325.69 360.49063 326.19 360.67813Q326.69 360.86563 326.92438 361.14688Q327.15875 361.42813 327.2525 361.86563Q327.29938 362.13126 327.29938 362.83438L327.29938 364.24063Q327.29938 365.70938 327.36188 366.1Q327.44 366.49063 327.64313 366.85L326.53375 366.85Q326.3775 366.52188 326.33063 366.08438ZM326.23688 363.725Q325.65875 363.95938 324.51813 364.13126Q323.86188 364.225 323.59625 364.35Q323.33063 364.45938 323.17438 364.67813Q323.03375 364.89688 323.03375 365.17813Q323.03375 365.6 323.34625 365.88126Q323.67438 366.1625 324.28375 366.1625Q324.89313 366.1625 325.36188 365.89688Q325.84625 365.63126 326.065 365.1625Q326.23688 364.80313 326.23688 364.11563L326.23688 363.725ZM329.26813 366.85L329.26813 360.63126L330.20563 360.63126L330.20563 361.50626Q330.5025 361.0375 330.98688 360.77188Q331.47125 360.49063 332.09625 360.49063Q332.78375 360.49063 333.22125 360.77188Q333.67438 361.05313 333.84625 361.56876Q334.59625 360.49063 335.76813 360.49063Q336.70563 360.49063 337.19 361.00626Q337.69 361.50626 337.69 362.58438L337.69 366.85L336.64313 366.85L336.64313 362.92813Q336.64313 362.30313 336.53375 362.02188Q336.44 361.74063 336.17438 361.56876Q335.90875 361.39688 335.53375 361.39688Q334.8775 361.39688 334.44 361.83438Q334.01813 362.27188 334.01813 363.24063L334.01813 366.85L332.95563 366.85L332.95563 362.80313Q332.95563 362.1 332.69 361.75626Q332.44 361.39688 331.86188 361.39688Q331.40875 361.39688 331.03375 361.63126Q330.65875 361.86563 330.48688 362.31876Q330.315 362.77188 330.315 363.61563L330.315 366.85L329.26813 366.85Z" fill-rule="nonzero"/><path fill="#000000" d="M403.91937 366.85L403.91937 358.25626L405.63812 358.25626L407.66937 364.33438Q407.95062 365.19376 408.07562 365.61563Q408.21625 365.14688 408.52875 364.24063L410.59125 358.25626L412.1225 358.25626L412.1225 366.85L411.02875 366.85L411.02875 359.6625L408.52875 366.85L407.4975 366.85L405.01312 359.5375L405.01312 366.85L403.91937 366.85ZM413.01312 366.85L413.01312 358.25626L418.81 358.25626L418.81 359.27188L414.15375 359.27188L414.15375 361.92813L418.185 361.92813L418.185 362.94376L414.15375 362.94376L414.15375 366.85L413.01312 366.85ZM426.09125 363.83438L427.21625 364.13126Q426.85687 365.52188 425.935 366.25626Q425.01312 366.99063 423.66937 366.99063Q422.27875 366.99063 421.40375 366.42813Q420.52875 365.86563 420.07562 364.80313Q419.6225 363.725 419.6225 362.49063Q419.6225 361.14688 420.13812 360.14688Q420.65375 359.14688 421.59125 358.63126Q422.54437 358.11563 423.685 358.11563Q424.96625 358.11563 425.84125 358.77188Q426.73187 359.42813 427.07562 360.61563L425.95062 360.88126Q425.65375 359.94376 425.07562 359.52188Q424.51312 359.08438 423.65375 359.08438Q422.66937 359.08438 421.9975 359.56876Q421.34125 360.0375 421.06 360.83438Q420.79437 361.63126 420.79437 362.49063Q420.79437 363.58438 421.10687 364.39688Q421.435 365.20938 422.10687 365.61563Q422.77875 366.02188 423.57562 366.02188Q424.52875 366.02188 425.185 365.475Q425.85687 364.92813 426.09125 363.83438ZM435.09125 363.83438L436.21625 364.13126Q435.85687 365.52188 434.935 366.25626Q434.01312 366.99063 432.66937 366.99063Q431.27875 366.99063 430.40375 366.42813Q429.52875 365.86563 429.07562 364.80313Q428.6225 363.725 428.6225 362.49063Q428.6225 361.14688 429.13812 360.14688Q429.65375 359.14688 430.59125 358.63126Q431.54437 358.11563 432.685 358.11563Q433.96625 358.11563 434.84125 358.77188Q435.73187 359.42813 436.07562 360.61563L434.95062 360.88126Q434.65375 359.94376 434.07562 359.52188Q433.51312 359.08438 432.65375 359.08438Q431.66937 359.08438 430.9975 359.56876Q430.34125 360.0375 430.06 360.83438Q429.79437 361.63126 429.79437 362.49063Q429.79437 363.58438 430.10687 364.39688Q430.435 365.20938 431.10687 365.61563Q431.77875 366.02188 432.57562 366.02188Q433.52875 366.02188 434.185 365.475Q434.85687 364.92813 435.09125 363.83438Z" fill-rule="nonzero"/><path fill="#000000" d="M534.50806 366.85L534.50806 358.25626L537.4768 358.25626Q538.4768 358.25626 539.00806 358.38126Q539.74243 358.55313 540.25806 358.99063Q540.94556 359.56876 541.2737 360.475Q541.61743 361.36563 541.61743 362.50626Q541.61743 363.49063 541.38306 364.24063Q541.1643 364.99063 540.80493 365.49063Q540.44556 365.99063 540.00806 366.27188Q539.5862 366.55313 538.99243 366.70938Q538.3987 366.85 537.61743 366.85L534.50806 366.85ZM535.6487 365.83438L537.4768 365.83438Q538.3362 365.83438 538.82056 365.67813Q539.30493 365.52188 539.5862 365.225Q539.99243 364.83438 540.2112 364.14688Q540.44556 363.45938 540.44556 362.49063Q540.44556 361.14688 539.99243 360.42813Q539.55493 359.69376 538.92993 359.44376Q538.4612 359.27188 537.4612 359.27188L535.6487 359.27188L535.6487 365.83438ZM545.00806 366.85L542.7268 358.25626L543.8987 358.25626L545.2112 363.89688Q545.4143 364.77188 545.57056 365.64688Q545.8987 364.27188 545.9612 364.05313L547.5862 358.25626L548.9612 358.25626L550.19556 362.6Q550.6487 364.225 550.86743 365.64688Q551.0237 364.83438 551.2893 363.77188L552.63306 358.25626L553.7737 358.25626L551.42993 366.85L550.32056 366.85L548.5237 360.30313Q548.2893 359.49063 548.24243 359.30313Q548.11743 359.88126 547.99243 360.30313L546.17993 366.85L545.00806 366.85ZM556.69556 366.85L556.69556 359.27188L553.86743 359.27188L553.86743 358.25626L560.67993 358.25626L560.67993 359.27188L557.8362 359.27188L557.8362 366.85L556.69556 366.85Z" fill-rule="nonzero"/><path fill="#757575" d="M21.11875 40.15L26.61875 25.837502L28.665625 25.837502L34.525 40.15L32.36875 40.15L30.696875 35.80625L24.7125 35.80625L23.134375 40.15L21.11875 40.15ZM25.259375 34.275L30.103125 34.275L28.61875 30.306252Q27.93125 28.493752 27.603125 27.337502Q27.321875 28.712502 26.821875 30.071877L25.259375 34.275ZM51.915627 35.134377L53.80625 35.603127Q53.2125 37.946877 51.665627 39.18125Q50.11875 40.4 47.86875 40.4Q45.55625 40.4 44.103127 39.4625Q42.665627 38.509377 41.9 36.728127Q41.15 34.93125 41.15 32.884377Q41.15 30.650002 41.99375 28.993752Q42.853127 27.321877 44.43125 26.462502Q46.009377 25.587502 47.9 25.587502Q50.05625 25.587502 51.509377 26.681252Q52.978127 27.775002 53.55625 29.759377L51.696877 30.196877Q51.196877 28.634377 50.24375 27.931252Q49.30625 27.212502 47.86875 27.212502Q46.2125 27.212502 45.103127 28.009377Q43.99375 28.790627 43.540627 30.134377Q43.103127 31.462502 43.103127 32.86875Q43.103127 34.696877 43.634377 36.071877Q44.165627 37.43125 45.290627 38.103127Q46.415627 38.775 47.7125 38.775Q49.30625 38.775 50.415627 37.853127Q51.525 36.93125 51.915627 35.134377ZM54.821877 34.9625Q54.821877 32.0875 56.415627 30.696877Q57.759377 29.540627 59.68125 29.540627Q61.821877 29.540627 63.165627 30.946877Q64.525 32.353127 64.525 34.821877Q64.525 36.821877 63.93125 37.978127Q63.3375 39.11875 62.18125 39.759377Q61.040627 40.384377 59.68125 40.384377Q57.49375 40.384377 56.15 38.99375Q54.821877 37.5875 54.821877 34.9625ZM56.61875 34.9625Q56.61875 36.9625 57.478127 37.946877Q58.353127 38.93125 59.68125 38.93125Q60.99375 38.93125 61.853127 37.946877Q62.728127 36.946877 62.728127 34.9Q62.728127 32.978127 61.853127 31.993752Q60.978127 30.993752 59.68125 30.993752Q58.353127 30.993752 57.478127 31.993752Q56.61875 32.978127 56.61875 34.9625ZM66.4625 40.15L66.4625 29.775002L68.04063 29.775002L68.04063 31.228127Q68.525 30.478127 69.3375 30.009377Q70.15 29.540627 71.18125 29.540627Q72.3375 29.540627 73.07188 30.025002Q73.80625 30.493752 74.11875 31.353127Q75.35313 29.540627 77.32188 29.540627Q78.86875 29.540627 79.69688 30.400002Q80.525 31.259377 80.525 33.025L80.525 40.15L78.775 40.15L78.775 33.61875Q78.775 32.55625 78.60313 32.103127Q78.43125 31.634377 77.97813 31.353127Q77.54063 31.071877 76.93125 31.071877Q75.8375 31.071877 75.10313 31.806252Q74.38438 32.525 74.38438 34.11875L74.38438 40.15L72.63438 40.15L72.63438 33.415627Q72.63438 32.24375 72.19688 31.665627Q71.775 31.071877 70.79063 31.071877Q70.05625 31.071877 69.41563 31.462502Q68.79063 31.853127 68.50938 32.603127Q68.22813 33.353127 68.22813 34.775L68.22813 40.15L66.4625 40.15ZM82.4625 44.11875L82.4625 29.775002L84.07188 29.775002L84.07188 31.118752Q84.63438 30.337502 85.3375 29.946877Q86.05625 29.540627 87.07188 29.540627Q88.4 29.540627 89.41563 30.228127Q90.43125 30.915627 90.94688 32.165627Q91.47813 33.4 91.47813 34.884377Q91.47813 36.478127 90.9 37.759377Q90.3375 39.025 89.24375 39.7125Q88.15 40.384377 86.94688 40.384377Q86.07188 40.384377 85.36875 40.009377Q84.68125 39.634377 84.22813 39.071877L84.22813 44.11875L82.4625 44.11875ZM84.05625 35.025Q84.05625 37.025 84.86875 37.978127Q85.68125 38.93125 86.8375 38.93125Q88.00938 38.93125 88.8375 37.946877Q89.68125 36.9625 89.68125 34.86875Q89.68125 32.9 88.85313 31.915627Q88.04063 30.915627 86.91563 30.915627Q85.79063 30.915627 84.91563 31.978127Q84.05625 33.025 84.05625 35.025ZM100.24375 38.86875Q99.25938 39.696877 98.35313 40.040627Q97.44688 40.384377 96.41563 40.384377Q94.7125 40.384377 93.79063 39.55625Q92.86875 38.7125 92.86875 37.415627Q92.86875 36.65 93.2125 36.025Q93.57188 35.4 94.13438 35.025Q94.69688 34.634377 95.4 34.43125Q95.91563 34.30625 96.9625 34.165627Q99.0875 33.915627 100.0875 33.571877Q100.10313 33.2125 100.10313 33.103127Q100.10313 32.040627 99.60313 31.587502Q98.93125 30.993752 97.60313 30.993752Q96.35313 30.993752 95.75938 31.431252Q95.18125 31.868752 94.9 32.978127L93.18125 32.74375Q93.41563 31.634377 93.94688 30.962502Q94.47813 30.275002 95.49375 29.915627Q96.50938 29.540627 97.85313 29.540627Q99.18125 29.540627 100.00938 29.853127Q100.8375 30.165627 101.22813 30.650002Q101.61875 31.118752 101.775 31.837502Q101.86875 32.290627 101.86875 33.4625L101.86875 35.80625Q101.86875 38.259377 101.97813 38.915627Q102.0875 39.55625 102.43125 40.15L100.5875 40.15Q100.32188 39.603127 100.24375 38.86875ZM100.0875 34.946877Q99.13438 35.3375 97.2125 35.603127Q96.13438 35.759377 95.68125 35.9625Q95.24375 36.15 94.99375 36.525Q94.74375 36.9 94.74375 37.36875Q94.74375 38.071877 95.275 38.540627Q95.80625 39.009377 96.8375 39.009377Q97.85313 39.009377 98.63438 38.571877Q99.43125 38.11875 99.80625 37.353127Q100.0875 36.74375 100.0875 35.5875L100.0875 34.946877ZM104.44688 40.15L104.44688 29.775002L106.025 29.775002L106.025 31.353127Q106.63438 30.243752 107.15 29.900002Q107.66563 29.540627 108.275 29.540627Q109.16563 29.540627 110.0875 30.103127L109.47813 31.743752Q108.8375 31.353127 108.19688 31.353127Q107.61875 31.353127 107.15 31.712502Q106.69688 32.05625 106.49375 32.665627Q106.2125 33.603127 106.2125 34.7125L106.2125 40.15L104.44688 40.15ZM111.47813 27.853127L111.47813 25.837502L113.24375 25.837502L113.24375 27.853127L111.47813 27.853127ZM111.47813 40.15L111.47813 29.775002L113.24375 29.775002L113.24375 40.15L111.47813 40.15ZM114.75938 37.05625L116.50938 36.775Q116.65 37.821877 117.32188 38.384377Q117.99375 38.93125 119.19688 38.93125Q120.4 38.93125 120.97813 38.446877Q121.57188 37.946877 121.57188 37.290627Q121.57188 36.696877 121.05625 36.353127Q120.69688 36.11875 119.25938 35.759377Q117.32188 35.259377 116.57188 34.915627Q115.8375 34.55625 115.44688 33.93125Q115.05625 33.290627 115.05625 32.525Q115.05625 31.837502 115.36875 31.243752Q115.69688 30.650002 116.24375 30.259377Q116.65 29.962502 117.35313 29.759377Q118.07188 29.540627 118.88438 29.540627Q120.10313 29.540627 121.025 29.900002Q121.94688 30.243752 122.38438 30.853127Q122.82188 31.446877 122.99375 32.446877L121.275 32.68125Q121.15 31.884377 120.5875 31.446877Q120.025 30.993752 119.00938 30.993752Q117.79063 30.993752 117.275 31.400002Q116.75938 31.790627 116.75938 32.321877Q116.75938 32.665627 116.97813 32.946877Q117.18125 33.228127 117.65 33.415627Q117.91563 33.509377 119.19688 33.853127Q121.07188 34.353127 121.80625 34.68125Q122.54063 34.99375 122.9625 35.603127Q123.38438 36.196877 123.38438 37.103127Q123.38438 37.978127 122.86875 38.759377Q122.35313 39.540627 121.38438 39.9625Q120.41563 40.384377 119.19688 40.384377Q117.18125 40.384377 116.11875 39.540627Q115.05625 38.696877 114.75938 37.05625ZM124.82188 34.9625Q124.82188 32.0875 126.41563 30.696877Q127.75938 29.540627 129.68124 29.540627Q131.82187 29.540627 133.16562 30.946877Q134.525 32.353127 134.525 34.821877Q134.525 36.821877 133.93124 37.978127Q133.3375 39.11875 132.18124 39.759377Q131.04062 40.384377 129.68124 40.384377Q127.49375 40.384377 126.15 38.99375Q124.82188 37.5875 124.82188 34.9625ZM126.61875 34.9625Q126.61875 36.9625 127.47813 37.946877Q128.35312 38.93125 129.68124 38.93125Q130.99374 38.93125 131.85312 37.946877Q132.72812 36.946877 132.72812 34.9Q132.72812 32.978127 131.85312 31.993752Q130.97812 30.993752 129.68124 30.993752Q128.35312 30.993752 127.47813 31.993752Q126.61875 32.978127 126.61875 34.9625ZM136.4625 40.15L136.4625 29.775002L138.05624 29.775002L138.05624 31.259377Q139.19687 29.540627 141.35312 29.540627Q142.29062 29.540627 143.07187 29.884377Q143.86874 30.212502 144.25937 30.759377Q144.65 31.306252 144.80624 32.05625Q144.9 32.55625 144.9 33.775L144.9 40.15L143.13437 40.15L143.13437 33.8375Q143.13437 32.759377 142.93124 32.228127Q142.72812 31.696877 142.19687 31.384377Q141.68124 31.071877 140.97812 31.071877Q139.85312 31.071877 139.04062 31.790627Q138.22812 32.49375 138.22812 34.478127L138.22812 40.15L136.4625 40.15ZM151.82187 34.9625Q151.82187 32.0875 153.41562 30.696877Q154.75937 29.540627 156.68124 29.540627Q158.82187 29.540627 160.16562 30.946877Q161.525 32.353127 161.525 34.821877Q161.525 36.821877 160.93124 37.978127Q160.3375 39.11875 159.18124 39.759377Q158.04062 40.384377 156.68124 40.384377Q154.49374 40.384377 153.15 38.99375Q151.82187 37.5875 151.82187 34.9625ZM153.61874 34.9625Q153.61874 36.9625 154.47812 37.946877Q155.35312 38.93125 156.68124 38.93125Q157.99374 38.93125 158.85312 37.946877Q159.72812 36.946877 159.72812 34.9Q159.72812 32.978127 158.85312 31.993752Q157.97812 30.993752 156.68124 30.993752Q155.35312 30.993752 154.47812 31.993752Q153.61874 32.978127 153.61874 34.9625ZM163.88437 40.15L163.88437 31.150002L162.3375 31.150002L162.3375 29.775002L163.88437 29.775002L163.88437 28.681252Q163.88437 27.634377 164.07187 27.118752Q164.32187 26.431252 164.9625 26.009377Q165.60312 25.587502 166.75937 25.587502Q167.50937 25.587502 168.4 25.759377L168.13437 27.290627Q167.5875 27.196877 167.10312 27.196877Q166.30624 27.196877 165.9625 27.540627Q165.63437 27.884377 165.63437 28.821877L165.63437 29.775002L167.66562 29.775002L167.66562 31.150002L165.63437 31.150002L165.63437 40.15L163.88437 40.15ZM175.79062 40.15L175.79062 25.837502L185.44687 25.837502L185.44687 27.525002L177.68124 27.525002L177.68124 31.962502L184.4 31.962502L184.4 33.65L177.68124 33.65L177.68124 40.15L175.79062 40.15ZM194.57187 36.80625L196.38437 37.040627Q195.9625 38.61875 194.79062 39.509377Q193.63437 40.384377 191.82187 40.384377Q189.55624 40.384377 188.2125 38.99375Q186.88437 37.5875 186.88437 35.05625Q186.88437 32.43125 188.22812 30.993752Q189.57187 29.540627 191.72812 29.540627Q193.80624 29.540627 195.11874 30.962502Q196.44687 32.36875 196.44687 34.946877Q196.44687 35.103127 196.43124 35.415627L188.69687 35.415627Q188.79062 37.11875 189.66562 38.025Q190.54062 38.93125 191.8375 38.93125Q192.80624 38.93125 193.47812 38.43125Q194.16562 37.915627 194.57187 36.80625ZM188.79062 33.9625L194.5875 33.9625Q194.47812 32.665627 193.93124 32.009377Q193.0875 30.993752 191.74374 30.993752Q190.54062 30.993752 189.7125 31.806252Q188.88437 32.603127 188.79062 33.9625ZM205.24374 38.86875Q204.25937 39.696877 203.35312 40.040627Q202.44687 40.384377 201.41562 40.384377Q199.7125 40.384377 198.79062 39.55625Q197.86874 38.7125 197.86874 37.415627Q197.86874 36.65 198.2125 36.025Q198.57187 35.4 199.13437 35.025Q199.69687 34.634377 200.4 34.43125Q200.91562 34.30625 201.9625 34.165627Q204.0875 33.915627 205.0875 33.571877Q205.10312 33.2125 205.10312 33.103127Q205.10312 32.040627 204.60312 31.587502Q203.93124 30.993752 202.60312 30.993752Q201.35312 30.993752 200.75937 31.431252Q200.18124 31.868752 199.9 32.978127L198.18124 32.74375Q198.41562 31.634377 198.94687 30.962502Q199.47812 30.275002 200.49374 29.915627Q201.50937 29.540627 202.85312 29.540627Q204.18124 29.540627 205.00937 29.853127Q205.8375 30.165627 206.22812 30.650002Q206.61874 31.118752 206.775 31.837502Q206.86874 32.290627 206.86874 33.4625L206.86874 35.80625Q206.86874 38.259377 206.97812 38.915627Q207.0875 39.55625 207.43124 40.15L205.5875 40.15Q205.32187 39.603127 205.24374 38.86875ZM205.0875 34.946877Q204.13437 35.3375 202.2125 35.603127Q201.13437 35.759377 200.68124 35.9625Q200.24374 36.15 199.99374 36.525Q199.74374 36.9 199.74374 37.36875Q199.74374 38.071877 200.275 38.540627Q200.80624 39.009377 201.8375 39.009377Q202.85312 39.009377 203.63437 38.571877Q204.43124 38.11875 204.80624 37.353127Q205.0875 36.74375 205.0875 35.5875L205.0875 34.946877ZM213.30624 38.571877L213.55624 40.134377Q212.82187 40.290627 212.22812 40.290627Q211.275 40.290627 210.74374 39.99375Q210.22812 39.68125 210.00937 39.196877Q209.79062 38.696877 209.79062 37.11875L209.79062 31.150002L208.50937 31.150002L208.50937 29.775002L209.79062 29.775002L209.79062 27.212502L211.54062 26.150002L211.54062 29.775002L213.30624 29.775002L213.30624 31.150002L211.54062 31.150002L211.54062 37.2125Q211.54062 37.9625 211.63437 38.18125Q211.72812 38.384377 211.93124 38.525Q212.15 38.65 212.54062 38.65Q212.82187 38.65 213.30624 38.571877ZM222.25937 40.15L222.25937 38.61875Q221.05624 40.384377 218.97812 40.384377Q218.05624 40.384377 217.25937 40.040627Q216.4625 39.68125 216.07187 39.15Q215.69687 38.61875 215.54062 37.8375Q215.43124 37.321877 215.43124 36.196877L215.43124 29.775002L217.18124 29.775002L217.18124 35.525Q217.18124 36.9 217.29062 37.384377Q217.4625 38.071877 217.99374 38.478127Q218.54062 38.86875 219.32187 38.86875Q220.11874 38.86875 220.80624 38.4625Q221.50937 38.05625 221.79062 37.36875Q222.0875 36.665627 222.0875 35.3375L222.0875 29.775002L223.8375 29.775002L223.8375 40.15L222.25937 40.15ZM225.44687 40.15L225.44687 29.775002L227.025 29.775002L227.025 31.353127Q227.63437 30.243752 228.15 29.900002Q228.66562 29.540627 229.275 29.540627Q230.16562 29.540627 231.0875 30.103127L230.47812 31.743752Q229.8375 31.353127 229.19687 31.353127Q228.61874 31.353127 228.15 31.712502Q227.69687 32.05625 227.49374 32.665627Q227.2125 33.603127 227.2125 34.7125L227.2125 40.15L225.44687 40.15ZM239.57187 36.80625L241.38437 37.040627Q240.9625 38.61875 239.79062 39.509377Q238.63437 40.384377 236.82187 40.384377Q234.55624 40.384377 233.2125 38.99375Q231.88437 37.5875 231.88437 35.05625Q231.88437 32.43125 233.22812 30.993752Q234.57187 29.540627 236.72812 29.540627Q238.80624 29.540627 240.11874 30.962502Q241.44687 32.36875 241.44687 34.946877Q241.44687 35.103127 241.43124 35.415627L233.69687 35.415627Q233.79062 37.11875 234.66562 38.025Q235.54062 38.93125 236.8375 38.93125Q237.80624 38.93125 238.47812 38.43125Q239.16562 37.915627 239.57187 36.80625ZM233.79062 33.9625L239.5875 33.9625Q239.47812 32.665627 238.93124 32.009377Q238.0875 30.993752 236.74374 30.993752Q235.54062 30.993752 234.7125 31.806252Q233.88437 32.603127 233.79062 33.9625ZM249.72812 40.15L249.72812 25.837502L260.0875 25.837502L260.0875 27.525002L251.63437 27.525002L251.63437 31.900002L259.54062 31.900002L259.54062 33.5875L251.63437 33.5875L251.63437 38.4625L260.41562 38.4625L260.41562 40.15L249.72812 40.15ZM261.29062 40.15L265.0875 34.759377L261.5875 29.775002L263.775 29.775002L265.36874 32.2125Q265.82187 32.9 266.0875 33.36875Q266.525 32.728127 266.88437 32.228127L268.63437 29.775002L270.72812 29.775002L267.15 34.665627L271.00937 40.15L268.85312 40.15L266.7125 36.93125L266.15 36.05625L263.43124 40.15L261.29062 40.15ZM275.30624 38.571877L275.55624 40.134377Q274.82187 40.290627 274.22812 40.290627Q273.275 40.290627 272.74374 39.99375Q272.22812 39.68125 272.00937 39.196877Q271.79062 38.696877 271.79062 37.11875L271.79062 31.150002L270.50937 31.150002L270.50937 29.775002L271.79062 29.775002L271.79062 27.212502L273.54062 26.150002L273.54062 29.775002L275.30624 29.775002L275.30624 31.150002L273.54062 31.150002L273.54062 37.2125Q273.54062 37.9625 273.63437 38.18125Q273.72812 38.384377 273.93124 38.525Q274.15 38.65 274.54062 38.65Q274.82187 38.65 275.30624 38.571877ZM277.44687 40.15L277.44687 29.775002L279.025 29.775002L279.025 31.353127Q279.63437 30.243752 280.15 29.900002Q280.66562 29.540627 281.275 29.540627Q282.16562 29.540627 283.0875 30.103127L282.47812 31.743752Q281.8375 31.353127 281.19687 31.353127Q280.61874 31.353127 280.15 31.712502Q279.69687 32.05625 279.49374 32.665627Q279.2125 33.603127 279.2125 34.7125L279.2125 40.15L277.44687 40.15ZM291.24374 38.86875Q290.25937 39.696877 289.35312 40.040627Q288.44687 40.384377 287.41562 40.384377Q285.7125 40.384377 284.79062 39.55625Q283.86874 38.7125 283.86874 37.415627Q283.86874 36.65 284.2125 36.025Q284.57187 35.4 285.13437 35.025Q285.69687 34.634377 286.4 34.43125Q286.91562 34.30625 287.9625 34.165627Q290.0875 33.915627 291.0875 33.571877Q291.10312 33.2125 291.10312 33.103127Q291.10312 32.040627 290.60312 31.587502Q289.93124 30.993752 288.60312 30.993752Q287.35312 30.993752 286.75937 31.431252Q286.18124 31.868752 285.9 32.978127L284.18124 32.74375Q284.41562 31.634377 284.94687 30.962502Q285.47812 30.275002 286.49374 29.915627Q287.50937 29.540627 288.85312 29.540627Q290.18124 29.540627 291.00937 29.853127Q291.8375 30.165627 292.22812 30.650002Q292.61874 31.118752 292.775 31.837502Q292.86874 32.290627 292.86874 33.4625L292.86874 35.80625Q292.86874 38.259377 292.97812 38.915627Q293.0875 39.55625 293.43124 40.15L291.5875 40.15Q291.32187 39.603127 291.24374 38.86875ZM291.0875 34.946877Q290.13437 35.3375 288.2125 35.603127Q287.13437 35.759377 286.68124 35.9625Q286.24374 36.15 285.99374 36.525Q285.74374 36.9 285.74374 37.36875Q285.74374 38.071877 286.275 38.540627Q286.80624 39.009377 287.8375 39.009377Q288.85312 39.009377 289.63437 38.571877Q290.43124 38.11875 290.80624 37.353127Q291.0875 36.74375 291.0875 35.5875L291.0875 34.946877ZM302.24374 36.353127L303.9625 36.571877Q303.68124 38.36875 302.50937 39.384377Q301.35312 40.384377 299.65 40.384377Q297.525 40.384377 296.22812 38.99375Q294.93124 37.603127 294.93124 35.009377Q294.93124 33.321877 295.47812 32.071877Q296.04062 30.806252 297.18124 30.181252Q298.32187 29.540627 299.66562 29.540627Q301.35312 29.540627 302.41562 30.400002Q303.49374 31.259377 303.80624 32.821877L302.0875 33.0875Q301.85312 32.040627 301.22812 31.525002Q300.60312 30.993752 299.72812 30.993752Q298.4 30.993752 297.57187 31.946877Q296.74374 32.9 296.74374 34.946877Q296.74374 37.040627 297.54062 37.99375Q298.3375 38.93125 299.63437 38.93125Q300.66562 38.93125 301.35312 38.30625Q302.05624 37.665627 302.24374 36.353127ZM309.30624 38.571877L309.55624 40.134377Q308.82187 40.290627 308.22812 40.290627Q307.275 40.290627 306.74374 39.99375Q306.22812 39.68125 306.00937 39.196877Q305.79062 38.696877 305.79062 37.11875L305.79062 31.150002L304.50937 31.150002L304.50937 29.775002L305.79062 29.775002L305.79062 27.212502L307.54062 26.150002L307.54062 29.775002L309.30624 29.775002L309.30624 31.150002L307.54062 31.150002L307.54062 37.2125Q307.54062 37.9625 307.63437 38.18125Q307.72812 38.384377 307.93124 38.525Q308.15 38.65 308.54062 38.65Q308.82187 38.65 309.30624 38.571877ZM311.47812 27.853127L311.47812 25.837502L313.24374 25.837502L313.24374 27.853127L311.47812 27.853127ZM311.47812 40.15L311.47812 29.775002L313.24374 29.775002L313.24374 40.15L311.47812 40.15ZM314.82187 34.9625Q314.82187 32.0875 316.41562 30.696877Q317.75937 29.540627 319.68124 29.540627Q321.82187 29.540627 323.16562 30.946877Q324.525 32.353127 324.525 34.821877Q324.525 36.821877 323.93124 37.978127Q323.3375 39.11875 322.18124 39.759377Q321.04062 40.384377 319.68124 40.384377Q317.49374 40.384377 316.15 38.99375Q314.82187 37.5875 314.82187 34.9625ZM316.61874 34.9625Q316.61874 36.9625 317.47812 37.946877Q318.35312 38.93125 319.68124 38.93125Q320.99374 38.93125 321.85312 37.946877Q322.72812 36.946877 322.72812 34.9Q322.72812 32.978127 321.85312 31.993752Q320.97812 30.993752 319.68124 30.993752Q318.35312 30.993752 317.47812 31.993752Q316.61874 32.978127 316.61874 34.9625ZM326.4625 40.15L326.4625 29.775002L328.05624 29.775002L328.05624 31.259377Q329.19687 29.540627 331.35312 29.540627Q332.29062 29.540627 333.07187 29.884377Q333.86874 30.212502 334.25937 30.759377Q334.65 31.306252 334.80624 32.05625Q334.9 32.55625 334.9 33.775L334.9 40.15L333.13437 40.15L333.13437 33.8375Q333.13437 32.759377 332.93124 32.228127Q332.72812 31.696877 332.19687 31.384377Q331.68124 31.071877 330.97812 31.071877Q329.85312 31.071877 329.04062 31.790627Q328.22812 32.49375 328.22812 34.478127L328.22812 40.15L326.4625 40.15ZM341.11874 40.15L346.61874 25.837502L348.66562 25.837502L354.525 40.15L352.36874 40.15L350.69687 35.80625L344.7125 35.80625L343.13437 40.15L341.11874 40.15ZM345.25937 34.275L350.10312 34.275L348.61874 30.306252Q347.93124 28.493752 347.60312 27.337502Q347.32187 28.712502 346.82187 30.071877L345.25937 34.275ZM355.43124 40.15L355.43124 25.837502L357.18124 25.837502L357.18124 40.15L355.43124 40.15ZM359.15 41.009377L360.85312 41.259377Q360.9625 42.05625 361.44687 42.415627Q362.10312 42.9 363.24374 42.9Q364.4625 42.9 365.11874 42.415627Q365.79062 41.93125 366.025 41.05625Q366.16562 40.509377 366.15 38.790627Q364.99374 40.15 363.275 40.15Q361.13437 40.15 359.9625 38.603127Q358.79062 37.05625 358.79062 34.9Q358.79062 33.415627 359.32187 32.165627Q359.86874 30.915627 360.88437 30.228127Q361.91562 29.540627 363.29062 29.540627Q365.11874 29.540627 366.32187 31.025002L366.32187 29.775002L367.93124 29.775002L367.93124 38.74375Q367.93124 41.165627 367.43124 42.165627Q366.94687 43.18125 365.86874 43.759377Q364.80624 44.353127 363.24374 44.353127Q361.4 44.353127 360.24374 43.525Q359.10312 42.696877 359.15 41.009377ZM360.60312 34.775Q360.60312 36.821877 361.41562 37.759377Q362.22812 38.696877 363.44687 38.696877Q364.65 38.696877 365.4625 37.759377Q366.29062 36.821877 366.29062 34.8375Q366.29062 32.93125 365.44687 31.962502Q364.60312 30.993752 363.41562 30.993752Q362.24374 30.993752 361.41562 31.946877Q360.60312 32.9 360.60312 34.775ZM369.82187 34.9625Q369.82187 32.0875 371.41562 30.696877Q372.75937 29.540627 374.68124 29.540627Q376.82187 29.540627 378.16562 30.946877Q379.525 32.353127 379.525 34.821877Q379.525 36.821877 378.93124 37.978127Q378.3375 39.11875 377.18124 39.759377Q376.04062 40.384377 374.68124 40.384377Q372.49374 40.384377 371.15 38.99375Q369.82187 37.5875 369.82187 34.9625ZM371.61874 34.9625Q371.61874 36.9625 372.47812 37.946877Q373.35312 38.93125 374.68124 38.93125Q375.99374 38.93125 376.85312 37.946877Q377.72812 36.946877 377.72812 34.9Q377.72812 32.978127 376.85312 31.993752Q375.97812 30.993752 374.68124 30.993752Q373.35312 30.993752 372.47812 31.993752Q371.61874 32.978127 371.61874 34.9625ZM381.44687 40.15L381.44687 29.775002L383.025 29.775002L383.025 31.353127Q383.63437 30.243752 384.15 29.900002Q384.66562 29.540627 385.275 29.540627Q386.16562 29.540627 387.0875 30.103127L386.47812 31.743752Q385.8375 31.353127 385.19687 31.353127Q384.61874 31.353127 384.15 31.712502Q383.69687 32.05625 383.49374 32.665627Q383.2125 33.603127 383.2125 34.7125L383.2125 40.15L381.44687 40.15ZM388.47812 27.853127L388.47812 25.837502L390.24374 25.837502L390.24374 27.853127L388.47812 27.853127ZM388.47812 40.15L388.47812 29.775002L390.24374 29.775002L390.24374 40.15L388.47812 40.15ZM396.30624 38.571877L396.55624 40.134377Q395.82187 40.290627 395.22812 40.290627Q394.275 40.290627 393.74374 39.99375Q393.22812 39.68125 393.00937 39.196877Q392.79062 38.696877 392.79062 37.11875L392.79062 31.150002L391.50937 31.150002L391.50937 29.775002L392.79062 29.775002L392.79062 27.212502L394.54062 26.150002L394.54062 29.775002L396.30624 29.775002L396.30624 31.150002L394.54062 31.150002L394.54062 37.2125Q394.54062 37.9625 394.63437 38.18125Q394.72812 38.384377 394.93124 38.525Q395.15 38.65 395.54062 38.65Q395.82187 38.65 396.30624 38.571877ZM398.4625 40.15L398.4625 25.837502L400.22812 25.837502L400.22812 30.962502Q401.4625 29.540627 403.3375 29.540627Q404.47812 29.540627 405.32187 29.993752Q406.18124 30.446877 406.54062 31.259377Q406.91562 32.05625 406.91562 33.571877L406.91562 40.15L405.16562 40.15L405.16562 33.571877Q405.16562 32.259377 404.5875 31.665627Q404.00937 31.056252 402.97812 31.056252Q402.19687 31.056252 401.49374 31.462502Q400.80624 31.868752 400.50937 32.571877Q400.22812 33.259377 400.22812 34.478127L400.22812 40.15L398.4625 40.15ZM408.4625 40.15L408.4625 29.775002L410.04062 29.775002L410.04062 31.228127Q410.525 30.478127 411.3375 30.009377Q412.15 29.540627 413.18124 29.540627Q414.3375 29.540627 415.07187 30.025002Q415.80624 30.493752 416.11874 31.353127Q417.35312 29.540627 419.32187 29.540627Q420.86874 29.540627 421.69687 30.400002Q422.525 31.259377 422.525 33.025L422.525 40.15L420.775 40.15L420.775 33.61875Q420.775 32.55625 420.60312 32.103127Q420.43124 31.634377 419.97812 31.353127Q419.54062 31.071877 418.93124 31.071877Q417.8375 31.071877 417.10312 31.806252Q416.38437 32.525 416.38437 34.11875L416.38437 40.15L414.63437 40.15L414.63437 33.415627Q414.63437 32.24375 414.19687 31.665627Q413.775 31.071877 412.79062 31.071877Q412.05624 31.071877 411.41562 31.462502Q410.79062 31.853127 410.50937 32.603127Q410.22812 33.353127 410.22812 34.775L410.22812 40.15L408.4625 40.15ZM423.75937 37.05625L425.50937 36.775Q425.65 37.821877 426.32187 38.384377Q426.99374 38.93125 428.19687 38.93125Q429.4 38.93125 429.97812 38.446877Q430.57187 37.946877 430.57187 37.290627Q430.57187 36.696877 430.05624 36.353127Q429.69687 36.11875 428.25937 35.759377Q426.32187 35.259377 425.57187 34.915627Q424.8375 34.55625 424.44687 33.93125Q424.05624 33.290627 424.05624 32.525Q424.05624 31.837502 424.36874 31.243752Q424.69687 30.650002 425.24374 30.259377Q425.65 29.962502 426.35312 29.759377Q427.07187 29.540627 427.88437 29.540627Q429.10312 29.540627 430.025 29.900002Q430.94687 30.243752 431.38437 30.853127Q431.82187 31.446877 431.99374 32.446877L430.275 32.68125Q430.15 31.884377 429.5875 31.446877Q429.025 30.993752 428.00937 30.993752Q426.79062 30.993752 426.275 31.400002Q425.75937 31.790627 425.75937 32.321877Q425.75937 32.665627 425.97812 32.946877Q426.18124 33.228127 426.65 33.415627Q426.91562 33.509377 428.19687 33.853127Q430.07187 34.353127 430.80624 34.68125Q431.54062 34.99375 431.9625 35.603127Q432.38437 36.196877 432.38437 37.103127Q432.38437 37.978127 431.86874 38.759377Q431.35312 39.540627 430.38437 39.9625Q429.41562 40.384377 428.19687 40.384377Q426.18124 40.384377 425.11874 39.540627Q424.05624 38.696877 423.75937 37.05625ZM434.47812 30.900002L434.025 28.228127L434.025 25.837502L436.025 25.837502L436.025 28.228127L435.55624 30.900002L434.47812 30.900002ZM444.72812 40.15L444.72812 25.837502L455.0875 25.837502L455.0875 27.525002L446.63437 27.525002L446.63437 31.900002L454.54062 31.900002L454.54062 33.5875L446.63437 33.5875L446.63437 38.4625L455.41562 38.4625L455.41562 40.15L444.72812 40.15ZM456.29062 40.15L460.0875 34.759377L456.5875 29.775002L458.775 29.775002L460.36874 32.2125Q460.82187 32.9 461.0875 33.36875Q461.525 32.728127 461.88437 32.228127L463.63437 29.775002L465.72812 29.775002L462.15 34.665627L466.00937 40.15L463.85312 40.15L461.7125 36.93125L461.15 36.05625L458.43124 40.15L456.29062 40.15ZM473.57187 36.80625L475.38437 37.040627Q474.9625 38.61875 473.79062 39.509377Q472.63437 40.384377 470.82187 40.384377Q468.55624 40.384377 467.2125 38.99375Q465.88437 37.5875 465.88437 35.05625Q465.88437 32.43125 467.22812 30.993752Q468.57187 29.540627 470.72812 29.540627Q472.80624 29.540627 474.11874 30.962502Q475.44687 32.36875 475.44687 34.946877Q475.44687 35.103127 475.43124 35.415627L467.69687 35.415627Q467.79062 37.11875 468.66562 38.025Q469.54062 38.93125 470.8375 38.93125Q471.80624 38.93125 472.47812 38.43125Q473.16562 37.915627 473.57187 36.80625ZM467.79062 33.9625L473.5875 33.9625Q473.47812 32.665627 472.93124 32.009377Q472.0875 30.993752 470.74374 30.993752Q469.54062 30.993752 468.7125 31.806252Q467.88437 32.603127 467.79062 33.9625ZM484.24374 36.353127L485.9625 36.571877Q485.68124 38.36875 484.50937 39.384377Q483.35312 40.384377 481.65 40.384377Q479.525 40.384377 478.22812 38.99375Q476.93124 37.603127 476.93124 35.009377Q476.93124 33.321877 477.47812 32.071877Q478.04062 30.806252 479.18124 30.181252Q480.32187 29.540627 481.66562 29.540627Q483.35312 29.540627 484.41562 30.400002Q485.49374 31.259377 485.80624 32.821877L484.0875 33.0875Q483.85312 32.040627 483.22812 31.525002Q482.60312 30.993752 481.72812 30.993752Q480.4 30.993752 479.57187 31.946877Q478.74374 32.9 478.74374 34.946877Q478.74374 37.040627 479.54062 37.99375Q480.3375 38.93125 481.63437 38.93125Q482.66562 38.93125 483.35312 38.30625Q484.05624 37.665627 484.24374 36.353127ZM494.25937 40.15L494.25937 38.61875Q493.05624 40.384377 490.97812 40.384377Q490.05624 40.384377 489.25937 40.040627Q488.4625 39.68125 488.07187 39.15Q487.69687 38.61875 487.54062 37.8375Q487.43124 37.321877 487.43124 36.196877L487.43124 29.775002L489.18124 29.775002L489.18124 35.525Q489.18124 36.9 489.29062 37.384377Q489.4625 38.071877 489.99374 38.478127Q490.54062 38.86875 491.32187 38.86875Q492.11874 38.86875 492.80624 38.4625Q493.50937 38.05625 493.79062 37.36875Q494.0875 36.665627 494.0875 35.3375L494.0875 29.775002L495.8375 29.775002L495.8375 40.15L494.25937 40.15ZM501.30624 38.571877L501.55624 40.134377Q500.82187 40.290627 500.22812 40.290627Q499.275 40.290627 498.74374 39.99375Q498.22812 39.68125 498.00937 39.196877Q497.79062 38.696877 497.79062 37.11875L497.79062 31.150002L496.50937 31.150002L496.50937 29.775002L497.79062 29.775002L497.79062 27.212502L499.54062 26.150002L499.54062 29.775002L501.30624 29.775002L501.30624 31.150002L499.54062 31.150002L499.54062 37.2125Q499.54062 37.9625 499.63437 38.18125Q499.72812 38.384377 499.93124 38.525Q500.15 38.65 500.54062 38.65Q500.82187 38.65 501.30624 38.571877ZM503.47812 27.853127L503.47812 25.837502L505.24374 25.837502L505.24374 27.853127L503.47812 27.853127ZM503.47812 40.15L503.47812 29.775002L505.24374 29.775002L505.24374 40.15L503.47812 40.15ZM506.82187 34.9625Q506.82187 32.0875 508.41562 30.696877Q509.75937 29.540627 511.68124 29.540627Q513.8219 29.540627 515.16565 30.946877Q516.525 32.353127 516.525 34.821877Q516.525 36.821877 515.9313 37.978127Q515.3375 39.11875 514.1813 39.759377Q513.04065 40.384377 511.68124 40.384377Q509.49374 40.384377 508.15 38.99375Q506.82187 37.5875 506.82187 34.9625ZM508.61874 34.9625Q508.61874 36.9625 509.47812 37.946877Q510.35312 38.93125 511.68124 38.93125Q512.9938 38.93125 513.85315 37.946877Q514.72815 36.946877 514.72815 34.9Q514.72815 32.978127 513.85315 31.993752Q512.97815 30.993752 511.68124 30.993752Q510.35312 30.993752 509.47812 31.993752Q508.61874 32.978127 508.61874 34.9625ZM518.4625 40.15L518.4625 29.775002L520.0563 29.775002L520.0563 31.259377Q521.1969 29.540627 523.35315 29.540627Q524.29065 29.540627 525.0719 29.884377Q525.8688 30.212502 526.2594 30.759377Q526.65 31.306252 526.8063 32.05625Q526.9 32.55625 526.9 33.775L526.9 40.15L525.1344 40.15L525.1344 33.8375Q525.1344 32.759377 524.9313 32.228127Q524.72815 31.696877 524.1969 31.384377Q523.6813 31.071877 522.97815 31.071877Q521.85315 31.071877 521.04065 31.790627Q520.22815 32.49375 520.22815 34.478127L520.22815 40.15L518.4625 40.15ZM538.3375 40.15L538.3375 27.525002L533.6188 27.525002L533.6188 25.837502L544.9625 25.837502L544.9625 27.525002L540.22815 27.525002L540.22815 40.15L538.3375 40.15ZM546.47815 27.853127L546.47815 25.837502L548.2438 25.837502L548.2438 27.853127L546.47815 27.853127ZM546.47815 40.15L546.47815 29.775002L548.2438 29.775002L548.2438 40.15L546.47815 40.15ZM550.4625 40.15L550.4625 29.775002L552.04065 29.775002L552.04065 31.228127Q552.525 30.478127 553.3375 30.009377Q554.15 29.540627 555.1813 29.540627Q556.3375 29.540627 557.0719 30.025002Q557.8063 30.493752 558.1188 31.353127Q559.35315 29.540627 561.3219 29.540627Q562.8688 29.540627 563.6969 30.400002Q564.525 31.259377 564.525 33.025L564.525 40.15L562.775 40.15L562.775 33.61875Q562.775 32.55625 562.60315 32.103127Q562.4313 31.634377 561.97815 31.353127Q561.54065 31.071877 560.9313 31.071877Q559.8375 31.071877 559.10315 31.806252Q558.3844 32.525 558.3844 34.11875L558.3844 40.15L556.6344 40.15L556.6344 33.415627Q556.6344 32.24375 556.1969 31.665627Q555.775 31.071877 554.79065 31.071877Q554.0563 31.071877 553.41565 31.462502Q552.79065 31.853127 552.5094 32.603127Q552.22815 33.353127 552.22815 34.775L552.22815 40.15L550.4625 40.15ZM573.5719 36.80625L575.3844 37.040627Q574.9625 38.61875 573.79065 39.509377Q572.6344 40.384377 570.8219 40.384377Q568.5563 40.384377 567.2125 38.99375Q565.8844 37.5875 565.8844 35.05625Q565.8844 32.43125 567.22815 30.993752Q568.5719 29.540627 570.72815 29.540627Q572.8063 29.540627 574.1188 30.962502Q575.4469 32.36875 575.4469 34.946877Q575.4469 35.103127 575.4313 35.415627L567.6969 35.415627Q567.79065 37.11875 568.66565 38.025Q569.54065 38.93125 570.8375 38.93125Q571.8063 38.93125 572.47815 38.43125Q573.16565 37.915627 573.5719 36.80625ZM567.79065 33.9625L573.5875 33.9625Q573.47815 32.665627 572.9313 32.009377Q572.0875 30.993752 570.7438 30.993752Q569.54065 30.993752 568.7125 31.806252Q567.8844 32.603127 567.79065 33.9625ZM582.8219 34.9625Q582.8219 32.0875 584.41565 30.696877Q585.7594 29.540627 587.6813 29.540627Q589.8219 29.540627 591.16565 30.946877Q592.525 32.353127 592.525 34.821877Q592.525 36.821877 591.9313 37.978127Q591.3375 39.11875 590.1813 39.759377Q589.04065 40.384377 587.6813 40.384377Q585.4938 40.384377 584.15 38.99375Q582.8219 37.5875 582.8219 34.9625ZM584.6188 34.9625Q584.6188 36.9625 585.47815 37.946877Q586.35315 38.93125 587.6813 38.93125Q588.9938 38.93125 589.85315 37.946877Q590.72815 36.946877 590.72815 34.9Q590.72815 32.978127 589.85315 31.993752Q588.97815 30.993752 587.6813 30.993752Q586.35315 30.993752 585.47815 31.993752Q584.6188 32.978127 584.6188 34.9625ZM594.4625 40.15L594.4625 29.775002L596.0563 29.775002L596.0563 31.259377Q597.1969 29.540627 599.35315 29.540627Q600.29065 29.540627 601.0719 29.884377Q601.8688 30.212502 602.2594 30.759377Q602.65 31.306252 602.8063 32.05625Q602.9 32.55625 602.9 33.775L602.9 40.15L601.1344 40.15L601.1344 33.8375Q601.1344 32.759377 600.9313 32.228127Q600.72815 31.696877 600.1969 31.384377Q599.6813 31.071877 598.97815 31.071877Q597.85315 31.071877 597.04065 31.790627Q596.22815 32.49375 596.22815 34.478127L596.22815 40.15L594.4625 40.15Z" fill-rule="nonzero"/><path fill="#757575" d="M26.790625 64.15L21.24375 49.8375L23.290625 49.8375L27.009375 60.228127Q27.4625 61.478127 27.759375 62.571877Q28.0875 61.4 28.540625 60.228127L32.4 49.8375L34.3375 49.8375L28.728125 64.15L26.790625 64.15ZM42.24375 62.86875Q41.259377 63.696877 40.353127 64.04063Q39.446877 64.38438 38.415627 64.38438Q36.7125 64.38438 35.790627 63.55625Q34.86875 62.7125 34.86875 61.415627Q34.86875 60.65 35.2125 60.025Q35.571877 59.4 36.134377 59.025Q36.696877 58.634377 37.4 58.43125Q37.915627 58.30625 38.9625 58.165627Q41.0875 57.915627 42.0875 57.571877Q42.103127 57.2125 42.103127 57.103127Q42.103127 56.040627 41.603127 55.5875Q40.93125 54.99375 39.603127 54.99375Q38.353127 54.99375 37.759377 55.43125Q37.18125 55.86875 36.9 56.978127L35.18125 56.74375Q35.415627 55.634377 35.946877 54.9625Q36.478127 54.275 37.49375 53.915627Q38.509377 53.540627 39.853127 53.540627Q41.18125 53.540627 42.009377 53.853127Q42.8375 54.165627 43.228127 54.65Q43.61875 55.11875 43.775 55.8375Q43.86875 56.290627 43.86875 57.4625L43.86875 59.80625Q43.86875 62.259377 43.978127 62.915627Q44.0875 63.55625 44.43125 64.15L42.5875 64.15Q42.321877 63.603127 42.24375 62.86875ZM42.0875 58.946877Q41.134377 59.3375 39.2125 59.603127Q38.134377 59.759377 37.68125 59.9625Q37.24375 60.15 36.99375 60.525Q36.74375 60.9 36.74375 61.36875Q36.74375 62.071877 37.275 62.540627Q37.80625 63.009377 38.8375 63.009377Q39.853127 63.009377 40.634377 62.571877Q41.43125 62.11875 41.80625 61.353127Q42.0875 60.74375 42.0875 59.5875L42.0875 58.946877ZM46.43125 64.15L46.43125 49.8375L48.18125 49.8375L48.18125 64.15L46.43125 64.15ZM50.478127 51.853127L50.478127 49.8375L52.24375 49.8375L52.24375 51.853127L50.478127 51.853127ZM50.478127 64.15L50.478127 53.775L52.24375 53.775L52.24375 64.15L50.478127 64.15ZM61.196877 64.15L61.196877 62.8375Q60.2125 64.38438 58.290627 64.38438Q57.05625 64.38438 56.009377 63.696877Q54.978127 63.009377 54.4 61.790627Q53.8375 60.571877 53.8375 58.978127Q53.8375 57.415627 54.353127 56.15Q54.86875 54.884377 55.9 54.2125Q56.946877 53.540627 58.2125 53.540627Q59.15 53.540627 59.884377 53.946877Q60.61875 54.3375 61.0875 54.9625L61.0875 49.8375L62.821877 49.8375L62.821877 64.15L61.196877 64.15ZM55.634377 58.978127Q55.634377 60.9625 56.478127 61.946877Q57.321877 62.93125 58.4625 62.93125Q59.61875 62.93125 60.415627 61.99375Q61.228127 61.05625 61.228127 59.11875Q61.228127 56.99375 60.4 55.99375Q59.5875 54.99375 58.384377 54.99375Q57.2125 54.99375 56.415627 55.9625Q55.634377 56.915627 55.634377 58.978127ZM72.24375 62.86875Q71.25938 63.696877 70.35313 64.04063Q69.44688 64.38438 68.41563 64.38438Q66.7125 64.38438 65.79063 63.55625Q64.86875 62.7125 64.86875 61.415627Q64.86875 60.65 65.2125 60.025Q65.57188 59.4 66.13438 59.025Q66.69688 58.634377 67.4 58.43125Q67.91563 58.30625 68.9625 58.165627Q71.0875 57.915627 72.0875 57.571877Q72.10313 57.2125 72.10313 57.103127Q72.10313 56.040627 71.60313 55.5875Q70.93125 54.99375 69.60313 54.99375Q68.35313 54.99375 67.75938 55.43125Q67.18125 55.86875 66.9 56.978127L65.18125 56.74375Q65.41563 55.634377 65.94688 54.9625Q66.47813 54.275 67.49375 53.915627Q68.50938 53.540627 69.85313 53.540627Q71.18125 53.540627 72.00938 53.853127Q72.8375 54.165627 73.22813 54.65Q73.61875 55.11875 73.775 55.8375Q73.86875 56.290627 73.86875 57.4625L73.86875 59.80625Q73.86875 62.259377 73.97813 62.915627Q74.0875 63.55625 74.43125 64.15L72.5875 64.15Q72.32188 63.603127 72.24375 62.86875ZM72.0875 58.946877Q71.13438 59.3375 69.2125 59.603127Q68.13438 59.759377 67.68125 59.9625Q67.24375 60.15 66.99375 60.525Q66.74375 60.9 66.74375 61.36875Q66.74375 62.071877 67.275 62.540627Q67.80625 63.009377 68.8375 63.009377Q69.85313 63.009377 70.63438 62.571877Q71.43125 62.11875 71.80625 61.353127Q72.0875 60.74375 72.0875 59.5875L72.0875 58.946877ZM80.30625 62.571877L80.55625 64.13438Q79.82188 64.29063 79.22813 64.29063Q78.275 64.29063 77.74375 63.99375Q77.22813 63.68125 77.00938 63.196877Q76.79063 62.696877 76.79063 61.11875L76.79063 55.15L75.50938 55.15L75.50938 53.775L76.79063 53.775L76.79063 51.2125L78.54063 50.15L78.54063 53.775L80.30625 53.775L80.30625 55.15L78.54063 55.15L78.54063 61.2125Q78.54063 61.9625 78.63438 62.18125Q78.72813 62.384377 78.93125 62.525Q79.15 62.65 79.54063 62.65Q79.82188 62.65 80.30625 62.571877ZM82.47813 51.853127L82.47813 49.8375L84.24375 49.8375L84.24375 51.853127L82.47813 51.853127ZM82.47813 64.15L82.47813 53.775L84.24375 53.775L84.24375 64.15L82.47813 64.15ZM85.82188 58.9625Q85.82188 56.0875 87.41563 54.696877Q88.75938 53.540627 90.68125 53.540627Q92.82188 53.540627 94.16563 54.946877Q95.525 56.353127 95.525 58.821877Q95.525 60.821877 94.93125 61.978127Q94.3375 63.11875 93.18125 63.759377Q92.04063 64.38438 90.68125 64.38438Q88.49375 64.38438 87.15 62.99375Q85.82188 61.5875 85.82188 58.9625ZM87.61875 58.9625Q87.61875 60.9625 88.47813 61.946877Q89.35313 62.93125 90.68125 62.93125Q91.99375 62.93125 92.85313 61.946877Q93.72813 60.946877 93.72813 58.9Q93.72813 56.978127 92.85313 55.99375Q91.97813 54.99375 90.68125 54.99375Q89.35313 54.99375 88.47813 55.99375Q87.61875 56.978127 87.61875 58.9625ZM97.4625 64.15L97.4625 53.775L99.05625 53.775L99.05625 55.259377Q100.19688 53.540627 102.35313 53.540627Q103.29063 53.540627 104.07188 53.884377Q104.86875 54.2125 105.25938 54.759377Q105.65 55.30625 105.80625 56.05625Q105.9 56.55625 105.9 57.775L105.9 64.15L104.13438 64.15L104.13438 57.8375Q104.13438 56.759377 103.93125 56.228127Q103.72813 55.696877 103.19688 55.384377Q102.68125 55.071877 101.97813 55.071877Q100.85313 55.071877 100.04063 55.790627Q99.22813 56.49375 99.22813 58.478127L99.22813 64.15L97.4625 64.15ZM113.69688 64.15L113.69688 49.8375L118.61875 49.8375Q120.29063 49.8375 121.18125 50.040627Q122.4 50.321877 123.275 51.05625Q124.4 52.025 124.9625 53.509377Q125.525 54.99375 125.525 56.915627Q125.525 58.540627 125.15 59.80625Q124.775 61.05625 124.16563 61.884377Q123.57188 62.7125 122.86875 63.196877Q122.16563 63.665627 121.16563 63.915627Q120.16563 64.15 118.85313 64.15L113.69688 64.15ZM115.5875 62.4625L118.65 62.4625Q120.05625 62.4625 120.85313 62.196877Q121.66563 61.93125 122.15 61.446877Q122.82188 60.775 123.19688 59.65Q123.57188 58.509377 123.57188 56.884377Q123.57188 54.634377 122.8375 53.43125Q122.10313 52.228127 121.04063 51.821877Q120.29063 51.525 118.60313 51.525L115.5875 51.525L115.5875 62.4625ZM134.24374 62.86875Q133.25937 63.696877 132.35312 64.04063Q131.44687 64.38438 130.41562 64.38438Q128.7125 64.38438 127.79063 63.55625Q126.86875 62.7125 126.86875 61.415627Q126.86875 60.65 127.2125 60.025Q127.57188 59.4 128.13437 59.025Q128.69687 58.634377 129.4 58.43125Q129.91562 58.30625 130.9625 58.165627Q133.0875 57.915627 134.0875 57.571877Q134.10312 57.2125 134.10312 57.103127Q134.10312 56.040627 133.60312 55.5875Q132.93124 54.99375 131.60312 54.99375Q130.35312 54.99375 129.75937 55.43125Q129.18124 55.86875 128.9 56.978127L127.18125 56.74375Q127.41563 55.634377 127.94688 54.9625Q128.47812 54.275 129.49374 53.915627Q130.50937 53.540627 131.85312 53.540627Q133.18124 53.540627 134.00937 53.853127Q134.8375 54.165627 135.22812 54.65Q135.61874 55.11875 135.775 55.8375Q135.86874 56.290627 135.86874 57.4625L135.86874 59.80625Q135.86874 62.259377 135.97812 62.915627Q136.0875 63.55625 136.43124 64.15L134.5875 64.15Q134.32187 63.603127 134.24374 62.86875ZM134.0875 58.946877Q133.13437 59.3375 131.2125 59.603127Q130.13437 59.759377 129.68124 59.9625Q129.24374 60.15 128.99374 60.525Q128.74374 60.9 128.74374 61.36875Q128.74374 62.071877 129.275 62.540627Q129.80624 63.009377 130.8375 63.009377Q131.85312 63.009377 132.63437 62.571877Q133.43124 62.11875 133.80624 61.353127Q134.0875 60.74375 134.0875 59.5875L134.0875 58.946877ZM142.30624 62.571877L142.55624 64.13438Q141.82187 64.29063 141.22812 64.29063Q140.275 64.29063 139.74374 63.99375Q139.22812 63.68125 139.00937 63.196877Q138.79062 62.696877 138.79062 61.11875L138.79062 55.15L137.50937 55.15L137.50937 53.775L138.79062 53.775L138.79062 51.2125L140.54062 50.15L140.54062 53.775L142.30624 53.775L142.30624 55.15L140.54062 55.15L140.54062 61.2125Q140.54062 61.9625 140.63437 62.18125Q140.72812 62.384377 140.93124 62.525Q141.15 62.65 141.54062 62.65Q141.82187 62.65 142.30624 62.571877ZM151.24374 62.86875Q150.25937 63.696877 149.35312 64.04063Q148.44687 64.38438 147.41562 64.38438Q145.7125 64.38438 144.79062 63.55625Q143.86874 62.7125 143.86874 61.415627Q143.86874 60.65 144.2125 60.025Q144.57187 59.4 145.13437 59.025Q145.69687 58.634377 146.4 58.43125Q146.91562 58.30625 147.9625 58.165627Q150.0875 57.915627 151.0875 57.571877Q151.10312 57.2125 151.10312 57.103127Q151.10312 56.040627 150.60312 55.5875Q149.93124 54.99375 148.60312 54.99375Q147.35312 54.99375 146.75937 55.43125Q146.18124 55.86875 145.9 56.978127L144.18124 56.74375Q144.41562 55.634377 144.94687 54.9625Q145.47812 54.275 146.49374 53.915627Q147.50937 53.540627 148.85312 53.540627Q150.18124 53.540627 151.00937 53.853127Q151.8375 54.165627 152.22812 54.65Q152.61874 55.11875 152.775 55.8375Q152.86874 56.290627 152.86874 57.4625L152.86874 59.80625Q152.86874 62.259377 152.97812 62.915627Q153.0875 63.55625 153.43124 64.15L151.5875 64.15Q151.32187 63.603127 151.24374 62.86875ZM151.0875 58.946877Q150.13437 59.3375 148.2125 59.603127Q147.13437 59.759377 146.68124 59.9625Q146.24374 60.15 145.99374 60.525Q145.74374 60.9 145.74374 61.36875Q145.74374 62.071877 146.275 62.540627Q146.80624 63.009377 147.8375 63.009377Q148.85312 63.009377 149.63437 62.571877Q150.43124 62.11875 150.80624 61.353127Q151.0875 60.74375 151.0875 59.5875L151.0875 58.946877ZM154.75937 61.05625L156.50937 60.775Q156.65 61.821877 157.32187 62.384377Q157.99374 62.93125 159.19687 62.93125Q160.4 62.93125 160.97812 62.446877Q161.57187 61.946877 161.57187 61.290627Q161.57187 60.696877 161.05624 60.353127Q160.69687 60.11875 159.25937 59.759377Q157.32187 59.259377 156.57187 58.915627Q155.8375 58.55625 155.44687 57.93125Q155.05624 57.290627 155.05624 56.525Q155.05624 55.8375 155.36874 55.24375Q155.69687 54.65 156.24374 54.259377Q156.65 53.9625 157.35312 53.759377Q158.07187 53.540627 158.88437 53.540627Q160.10312 53.540627 161.025 53.9Q161.94687 54.24375 162.38437 54.853127Q162.82187 55.446877 162.99374 56.446877L161.275 56.68125Q161.15 55.884377 160.5875 55.446877Q160.025 54.99375 159.00937 54.99375Q157.79062 54.99375 157.275 55.4Q156.75937 55.790627 156.75937 56.321877Q156.75937 56.665627 156.97812 56.946877Q157.18124 57.228127 157.65 57.415627Q157.91562 57.509377 159.19687 57.853127Q161.07187 58.353127 161.80624 58.68125Q162.54062 58.99375 162.9625 59.603127Q163.38437 60.196877 163.38437 61.103127Q163.38437 61.978127 162.86874 62.759377Q162.35312 63.540627 161.38437 63.9625Q160.41562 64.38438 159.19687 64.38438Q157.18124 64.38438 156.11874 63.540627Q155.05624 62.696877 154.75937 61.05625ZM172.57187 60.80625L174.38437 61.040627Q173.9625 62.61875 172.79062 63.509377Q171.63437 64.38438 169.82187 64.38438Q167.55624 64.38438 166.2125 62.99375Q164.88437 61.5875 164.88437 59.05625Q164.88437 56.43125 166.22812 54.99375Q167.57187 53.540627 169.72812 53.540627Q171.80624 53.540627 173.11874 54.9625Q174.44687 56.36875 174.44687 58.946877Q174.44687 59.103127 174.43124 59.415627L166.69687 59.415627Q166.79062 61.11875 167.66562 62.025Q168.54062 62.93125 169.8375 62.93125Q170.80624 62.93125 171.47812 62.43125Q172.16562 61.915627 172.57187 60.80625ZM166.79062 57.9625L172.5875 57.9625Q172.47812 56.665627 171.93124 56.009377Q171.0875 54.99375 169.74374 54.99375Q168.54062 54.99375 167.7125 55.80625Q166.88437 56.603127 166.79062 57.9625ZM180.30624 62.571877L180.55624 64.13438Q179.82187 64.29063 179.22812 64.29063Q178.275 64.29063 177.74374 63.99375Q177.22812 63.68125 177.00937 63.196877Q176.79062 62.696877 176.79062 61.11875L176.79062 55.15L175.50937 55.15L175.50937 53.775L176.79062 53.775L176.79062 51.2125L178.54062 50.15L178.54062 53.775L180.30624 53.775L180.30624 55.15L178.54062 55.15L178.54062 61.2125Q178.54062 61.9625 178.63437 62.18125Q178.72812 62.384377 178.93124 62.525Q179.15 62.65 179.54062 62.65Q179.82187 62.65 180.30624 62.571877ZM181.75937 61.05625L183.50937 60.775Q183.65 61.821877 184.32187 62.384377Q184.99374 62.93125 186.19687 62.93125Q187.4 62.93125 187.97812 62.446877Q188.57187 61.946877 188.57187 61.290627Q188.57187 60.696877 188.05624 60.353127Q187.69687 60.11875 186.25937 59.759377Q184.32187 59.259377 183.57187 58.915627Q182.8375 58.55625 182.44687 57.93125Q182.05624 57.290627 182.05624 56.525Q182.05624 55.8375 182.36874 55.24375Q182.69687 54.65 183.24374 54.259377Q183.65 53.9625 184.35312 53.759377Q185.07187 53.540627 185.88437 53.540627Q187.10312 53.540627 188.025 53.9Q188.94687 54.24375 189.38437 54.853127Q189.82187 55.446877 189.99374 56.446877L188.275 56.68125Q188.15 55.884377 187.5875 55.446877Q187.025 54.99375 186.00937 54.99375Q184.79062 54.99375 184.275 55.4Q183.75937 55.790627 183.75937 56.321877Q183.75937 56.665627 183.97812 56.946877Q184.18124 57.228127 184.65 57.415627Q184.91562 57.509377 186.19687 57.853127Q188.07187 58.353127 188.80624 58.68125Q189.54062 58.99375 189.9625 59.603127Q190.38437 60.196877 190.38437 61.103127Q190.38437 61.978127 189.86874 62.759377Q189.35312 63.540627 188.38437 63.9625Q187.41562 64.38438 186.19687 64.38438Q184.18124 64.38438 183.11874 63.540627Q182.05624 62.696877 181.75937 61.05625Z" fill-rule="nonzero"/></svg>